<?xml version="1.0" encoding="UTF-8" standalone="no"?>
<!-- Created with Inkscape (http://www.inkscape.org/) -->

<svg
   xmlns:dc="http://purl.org/dc/elements/1.1/"
   xmlns:cc="http://creativecommons.org/ns#"
   xmlns:rdf="http://www.w3.org/1999/02/22-rdf-syntax-ns#"
   xmlns:svg="http://www.w3.org/2000/svg"
   xmlns="http://www.w3.org/2000/svg"
   xmlns:sodipodi="http://sodipodi.sourceforge.net/DTD/sodipodi-0.dtd"
   xmlns:inkscape="http://www.inkscape.org/namespaces/inkscape"
   width="96mm"
   height="96mm"
   viewBox="0 0 96 96"
   version="1.1"
   id="svg4751"
   inkscape:version="0.92.3 (unknown)"
   sodipodi:docname="launcher_adaptive.svg">
  <defs
     id="defs4745" />
  <sodipodi:namedview
     id="base"
     pagecolor="#ffffff"
     bordercolor="#666666"
     borderopacity="1.0"
     inkscape:pageopacity="0.0"
     inkscape:pageshadow="2"
     inkscape:zoom="2.5900875"
     inkscape:cx="269.6917"
     inkscape:cy="258.17577"
     inkscape:document-units="mm"
     inkscape:current-layer="layer2"
     showgrid="false"
     fit-margin-top="0"
     fit-margin-left="0"
     fit-margin-right="0"
     fit-margin-bottom="0"
     inkscape:window-width="3775"
     inkscape:window-height="2136"
     inkscape:window-x="65"
     inkscape:window-y="24"
     inkscape:window-maximized="1" />
  <metadata
     id="metadata4748">
    <rdf:RDF>
      <cc:Work
         rdf:about="">
        <dc:format>image/svg+xml</dc:format>
        <dc:type
           rdf:resource="http://purl.org/dc/dcmitype/StillImage" />
        <dc:title></dc:title>
      </cc:Work>
    </rdf:RDF>
  </metadata>
  <g
     inkscape:label="Layer 1"
     inkscape:groupmode="layer"
     id="layer1"
     transform="translate(-52.712143,-99.906908)"
     style="display:none">
    <g
       id="g5647"
       transform="translate(100.29496,-0.06973079)">
      <rect
         y="99.976639"
         x="-47.582821"
         height="96"
         width="96"
         id="rect5608"
         style="opacity:1;vector-effect:none;fill:#ffcc00;fill-opacity:1;stroke:none;stroke-width:1.16499996;stroke-linecap:butt;stroke-linejoin:miter;stroke-miterlimit:4;stroke-dasharray:none;stroke-dashoffset:0;stroke-opacity:1;marker:none" />
      <rect
         y="99.976639"
         x="-47.582817"
         height="31.9"
         width="96"
         id="rect5624"
         style="opacity:1;vector-effect:none;fill:#d4aa00;fill-opacity:1;stroke:none;stroke-width:1.16499996;stroke-linecap:butt;stroke-linejoin:miter;stroke-miterlimit:4;stroke-dasharray:none;stroke-dashoffset:0;stroke-opacity:1;marker:none" />
    </g>
  </g>
  <g
     inkscape:groupmode="layer"
     id="layer2"
     inkscape:label="fore"
     style="display:inline">
    <flowRoot
       xml:space="preserve"
       id="flowRoot5649"
       style="font-style:normal;font-variant:normal;font-weight:bold;font-stretch:normal;font-size:26.66666794px;line-height:1.25;font-family:FreeMono;-inkscape-font-specification:'FreeMono Bold';letter-spacing:0px;word-spacing:0px;fill:#ffffff;fill-opacity:1;stroke:none"
       transform="matrix(0.26458333,0,0,0.26458333,2.349502,1.3279804)"><flowRegion
         id="flowRegion5651"
         style="font-style:normal;font-variant:normal;font-weight:bold;font-stretch:normal;font-size:26.66666794px;font-family:FreeMono;-inkscape-font-specification:'FreeMono Bold';fill:#ffffff"><rect
           id="rect5653"
           width="335.77066"
           height="210.16757"
           x="15.544938"
           y="134.01317"
           style="font-style:normal;font-variant:normal;font-weight:bold;font-stretch:normal;font-size:26.66666794px;font-family:FreeMono;-inkscape-font-specification:'FreeMono Bold';fill:#ffffff" /></flowRegion><flowPara
         id="flowPara5655">πήγε πίσω και άρχισε να τους λέει ότι κάθε ένας άνθρωπος θα έχει στην τσέπη του έναν υπολογιστή και όλοι θα είναι συνδεδεμένοι μεταξύ τους, και, αν θέλεις, τα κράτη και οι εταιρίες θα σε παρακολουθούν συνεχώς. </flowPara></flowRoot>    <g
       aria-label="πήγε πίσω και άρχισε να τους λέει ότι κάθε ένας άνθρωπος θα έχει στην τσέπη του έναν υπολογιστή και όλοι θα είναι "
       transform="matrix(0.26458333,0,0,0.26458333,2.349502,1.3279804)"
       style="font-style:normal;font-variant:normal;font-weight:bold;font-stretch:normal;font-size:26.66666794px;line-height:1.25;font-family:FreeMono;-inkscape-font-specification:'FreeMono Bold';letter-spacing:0px;word-spacing:0px;fill:#ffffff;fill-opacity:1;stroke:none"
       id="flowRoot5729">
      <path
         d="m 25.998256,149.69367 h -4.933334 v 6.32 q 1.626667,0 1.626667,1.28 0,0.69334 -0.373333,1.04 -0.346667,0.34667 -1.386667,0.34667 h -2.373334 q -1.786666,0 -1.786666,-1.33333 0,-1.33334 1.626666,-1.33334 v -6.32 q -1.626666,0 -1.626666,-1.33333 0,-1.33333 1.786666,-1.33333 h 9.973334 q 1.76,0 1.76,1.33333 0,0.61333 -0.453333,0.98667 -0.453333,0.34666 -1.173333,0.34666 v 6.32 q 1.626666,0 1.626666,1.28 0,0.66667 -0.4,1.04 -0.373333,0.34667 -1.36,0.34667 h -2.373333 q -1.786667,0 -1.786667,-1.33333 0,-1.33334 1.626667,-1.33334 z"
         id="path5731"
         inkscape:connector-curvature="0" />
      <path
         d="m 42.681173,140.68034 -2.72,3.86667 q -0.32,0.42666 -0.746667,0.42666 -0.453333,0 -0.88,-0.37333 -0.4,-0.37333 -0.4,-0.77333 0,-0.26667 0.373334,-0.8 l 2.746666,-3.84 q 0.426667,-0.42667 0.746667,-0.42667 0.48,0 0.853333,0.34667 0.373334,0.34666 0.373334,0.72 0,0.37333 -0.346667,0.85333 z m -8.773334,18 q -1.76,0 -1.76,-1.33333 0,-1.33334 1.76,-1.33334 h 0.16 v -6.32 q -1.626666,-0.0533 -1.626666,-1.33333 0,-1.33333 1.786666,-1.33333 h 2.506667 v 1.28 q 0.96,-0.90667 1.76,-1.25334 0.8,-0.37333 1.893334,-0.37333 2.08,0 3.413333,1.17333 1.333333,1.17334 1.333333,3.30667 v 10.18667 q 1.626667,0 1.626667,1.33333 0,1.33333 -1.76,1.33333 H 42.46784 v -12.74666 q 0,-1.92 -2.4,-1.92 -0.933334,0 -1.68,0.4 -0.720001,0.4 -1.653334,1.41333 v 4.85333 h 0.16 q 1.76,0 1.76,1.33334 0,1.33333 -1.76,1.33333 z"
         id="path5733"
         inkscape:connector-curvature="0" />
      <path
         d="m 52.297423,147.02701 q 0.853334,0 1.306667,0.29333 0.453333,0.26667 0.453333,1.04 0,1.28 -1.573333,1.33333 l 3.04,5.94667 3.2,-5.94667 q -1.706666,0 -1.706666,-1.33333 0,-1.33333 1.786666,-1.33333 h 2.453334 q 0.853333,0 1.306667,0.29333 0.453333,0.26667 0.453333,1.04 0,1.2 -1.386667,1.33333 l -4.773333,9.06667 v 2.58667 h 0.293333 q 0.853333,0 1.306667,0.26666 0.453333,0.29334 0.453333,1.06667 0,1.33333 -1.76,1.33333 h -3.28 -0.266667 q -0.8,0 -1.146667,-0.42666 -0.346666,-0.4 -0.346666,-0.90667 0,-1.33333 1.76,-1.33333 h 0.293333 v -2.58667 l -4.72,-9.06667 q -1.306667,-0.16 -1.306667,-1.33333 0,-1.33333 1.76,-1.33333 z"
         id="path5735"
         inkscape:connector-curvature="0" />
      <path
         d="m 77.567006,156.01367 v 0.88 q 0,1.76 -1.36,1.76 -0.453334,0 -0.853334,-0.32 -1.626666,0.77334 -3.946666,0.77334 -2.586667,0 -4.266667,-1.06667 -1.68,-1.06667 -1.68,-2.69333 0,-0.77334 0.4,-1.52 0.426666,-0.74667 1.093333,-1.14667 v -0.26667 q -0.933333,-0.8 -0.933333,-2.08 0,-1.6 1.546666,-2.61333 1.546667,-1.04 3.946667,-1.04 1.946667,0 3.44,0.69333 0.293334,-0.69333 0.853334,-0.69333 1.253333,0 1.253333,1.76 v 0.98667 q 0,1.76 -1.333333,1.76 -0.8,0 -1.253334,-0.82667 l -0.133333,-0.24 q -1.093333,-0.77333 -2.746667,-0.77333 -1.013333,0 -1.84,0.29333 -0.8,0.26667 -0.8,0.64 0,0.42667 0.826667,0.72 0.853333,0.26667 2.106667,0.26667 h 0.826666 0.106667 q 1.68,0 1.68,1.33333 0,1.33333 -1.626667,1.33333 h -1.12 q -1.253333,0 -2.32,0.4 -1.04,0.37334 -1.04,0.96 0,0.45334 0.906667,0.8 0.933333,0.34667 2.213333,0.34667 2.186667,0 3.333334,-1.04 0.346666,-1.17333 1.36,-1.17333 1.36,0 1.36,1.78666 z"
         id="path5737"
         inkscape:connector-curvature="0" />
      <path
         d="m 105.94618,149.69367 h -4.93334 v 6.32 q 1.62667,0 1.62667,1.28 0,0.69334 -0.37333,1.04 -0.34667,0.34667 -1.38667,0.34667 h -2.373333 q -1.786667,0 -1.786667,-1.33333 0,-1.33334 1.626667,-1.33334 v -6.32 q -1.626667,0 -1.626667,-1.33333 0,-1.33333 1.786667,-1.33333 h 9.973333 q 1.76,0 1.76,1.33333 0,0.61333 -0.45333,0.98667 -0.45334,0.34666 -1.17334,0.34666 v 6.32 q 1.62667,0 1.62667,1.28 0,0.66667 -0.4,1.04 -0.37333,0.34667 -1.36,0.34667 h -2.37333 q -1.78667,0 -1.78667,-1.33333 0,-1.33334 1.62667,-1.33334 z"
         id="path5739"
         inkscape:connector-curvature="0" />
      <path
         d="m 120.73576,140.68034 -2.72,3.86667 q -0.32,0.42666 -0.74667,0.42666 -0.45333,0 -0.88,-0.37333 -0.4,-0.37333 -0.4,-0.77333 0,-0.26667 0.37333,-0.8 l 2.74667,-3.84 q 0.42667,-0.42667 0.74667,-0.42667 0.48,0 0.85333,0.34667 0.37333,0.34666 0.37333,0.72 0,0.37333 -0.34666,0.85333 z m -6.45334,7.68 q 0,-0.8 0.45334,-1.06667 0.48,-0.26666 1.33333,-0.26666 h 4.74667 v 7.04 q 0,1.06666 0.56,1.73333 0.58666,0.64 1.52,0.64 0.58666,0 1.17333,-0.18667 0.61333,-0.18666 0.72,-0.18666 0.50667,0 0.88,0.4 0.4,0.4 0.4,0.93333 0,0.8 -0.85333,1.25333 -0.85334,0.45334 -2.4,0.45334 -1.97334,0 -3.33334,-1.44 -1.33333,-1.46667 -1.33333,-3.6 v -4.37334 h -2.08 q -1.78667,0 -1.78667,-1.33333 z"
         id="path5741"
         inkscape:connector-curvature="0" />
      <path
         d="m 135.52534,149.34701 q -1.81333,0 -3.04,1.01333 -1.22667,1.01333 -1.22667,2.53333 0,1.49334 1.2,2.53334 1.22667,1.01333 3.01334,1.01333 1.78666,0 2.98666,-1.01333 1.22667,-1.04 1.22667,-2.53334 0,-1.49333 -1.22667,-2.50666 -1.2,-1.04 -2.93333,-1.04 z m 5.62667,0 q 1.2,1.62666 1.2,3.54666 0,2.61334 -2,4.42667 -2,1.78667 -4.88,1.78667 -2.88,0 -4.88,-1.78667 -2,-1.81333 -2,-4.42667 0,-2.64 2,-4.42666 2,-1.78667 4.96,-1.78667 h 6.64 q 0.56,0 0.93333,0.4 0.4,0.37333 0.4,0.93333 0,0.56 -0.4,0.96 -0.37333,0.37334 -0.93333,0.37334 z"
         id="path5743"
         inkscape:connector-curvature="0" />
      <path
         d="m 148.79493,159.74701 q -1.14667,0 -2.05334,-0.58667 -0.90666,-0.56 -1.41333,-1.36 -0.50667,-0.82667 -0.82667,-1.84 -0.32,-1.01333 -0.42666,-1.76 -0.10667,-0.74667 -0.10667,-1.30667 0,-2.21333 1.06667,-4.02666 -0.77334,-0.21334 -0.77334,-1.06667 0,-1.14667 1.30667,-1.14667 h 2.90667 q 0.50666,0 0.90666,0.26667 0.42667,0.26667 0.42667,0.88 0,0.4 -0.4,0.8 -0.37333,0.37333 -0.93333,0.37333 h -1.01334 q -1.28,1.81334 -1.28,4.02667 0,1.25333 0.29334,2.21333 0.32,0.93334 0.77333,1.38667 0.48,0.42667 0.85333,0.64 0.37334,0.18667 0.64,0.18667 0.45334,0 1.01334,-0.45334 0.56,-0.45333 0.56,-1.41333 v -3.68 q 0,-0.58667 0.37333,-0.82667 0.4,-0.26666 0.82667,-0.26666 0.26666,0 0.66666,0.29333 0.4,0.26667 0.4,0.8 v 3.68 q 0,0.98667 0.45334,1.41333 0.48,0.4 1.04,0.4 1.30666,0 2.13333,-2.10666 0.4,-1.06667 0.4,-2.34667 0,-2.13333 -1.28,-4 h -1.01333 q -0.50667,0 -0.90667,-0.32 -0.37333,-0.34667 -0.37333,-0.85333 0,-1.14667 1.28,-1.14667 h 2.93333 q 1.36,0 1.36,1.14667 0,0.8 -0.82667,1.06666 1.06667,1.78667 1.06667,4.02667 0,2.88 -1.36,4.88 -1.33333,1.97333 -3.46667,1.97333 -1.46666,0 -2.61333,-1.14666 -0.0267,0.0267 -0.29333,0.29333 -0.26667,0.29333 -0.32,0.32 -0.0533,0.0533 -0.32,0.21333 -0.24,0.18667 -0.42667,0.21334 -0.18667,0.0533 -0.53333,0.10666 -0.32,0.0533 -0.72,0.0533 z"
         id="path5745"
         inkscape:connector-curvature="0" />
      <path
         d="m 188.24077,156.01367 q 1.81333,0 1.81333,1.33334 0,1.33333 -1.81333,1.33333 h -3.14667 q -1.76,0 -1.76,-1.33333 0,-0.53334 0.42667,-0.98667 l -2.08,-2.05333 v 4.37333 h -3.09334 q -1.76,0 -1.76,-1.33333 0,-1.33334 1.76,-1.33334 h 0.42667 v -6.32 h -0.42667 q -0.85333,0 -1.30666,-0.26666 -0.45334,-0.29334 -0.45334,-1.06667 0,-1.33333 1.76,-1.33333 h 3.09334 v 4 l 2.13333,-1.68 q -0.42667,-0.50667 -0.42667,-0.98667 0,-1.33333 1.76,-1.33333 h 2.98667 q 0.85333,0 1.30667,0.29333 0.45333,0.26667 0.45333,1.04 0,1.33333 -1.76,1.33333 h -0.74667 l -3.62666,2.93334 3.62666,3.38666 z"
         id="path5747"
         inkscape:connector-curvature="0" />
      <path
         d="m 202.92368,152.89367 q 0,-1.6 -1.09334,-2.58666 -1.09333,-0.98667 -2.90666,-0.98667 -1.78667,0 -2.88,1.04 -1.06667,1.01333 -1.06667,2.48 0,1.30667 0.96,2.42667 0.98667,1.12 3.01333,1.12 1.76,0 2.85334,-0.98667 1.12,-1.01333 1.12,-2.50667 z m 1.33333,-6.66666 q 0.77333,0 1.04,0.45333 0.29333,0.45333 0.29333,1.30667 v 8.02666 h 0.42667 q 1.76,0 1.76,1.33334 0,1.33333 -1.76,1.33333 h -3.09333 v -0.93333 q -1.92,1.30666 -4.02667,1.30666 -2.98667,0 -4.8,-1.78666 -1.78667,-1.78667 -1.78667,-4.42667 0,-2.64 1.78667,-4.4 1.81333,-1.78667 4.82667,-1.78667 2.32,0 4,1.33334 0,-1.76 1.33333,-1.76 z"
         id="path5749"
         inkscape:connector-curvature="0" />
      <path
         d="m 210.21992,148.36034 q 0,-0.8 0.45334,-1.06667 0.48,-0.26666 1.33333,-0.26666 h 4.74667 v 7.04 q 0,1.06666 0.56,1.73333 0.58666,0.64 1.52,0.64 0.58666,0 1.17333,-0.18667 0.61333,-0.18666 0.72,-0.18666 0.50667,0 0.88,0.4 0.4,0.4 0.4,0.93333 0,0.8 -0.85333,1.25333 -0.85334,0.45334 -2.4,0.45334 -1.97334,0 -3.33334,-1.44 -1.33333,-1.46667 -1.33333,-3.6 v -4.37334 h -2.08 q -1.78667,0 -1.78667,-1.33333 z"
         id="path5751"
         inkscape:connector-curvature="0" />
      <path
         d="m 249.98576,140.22701 -2.72,3.86666 q -0.32,0.42667 -0.74667,0.42667 -0.45333,0 -0.88,-0.37333 -0.4,-0.37334 -0.4,-0.77334 0,-0.26666 0.37334,-0.8 l 2.74666,-3.84 q 0.42667,-0.42666 0.74667,-0.42666 0.48,0 0.85333,0.34666 0.37334,0.34667 0.37334,0.72 0,0.37334 -0.34667,0.85334 z m 0.90667,12.66666 q 0,-1.6 -1.09334,-2.58666 -1.09333,-0.98667 -2.90666,-0.98667 -1.78667,0 -2.88,1.04 -1.06667,1.01333 -1.06667,2.48 0,1.30667 0.96,2.42667 0.98667,1.12 3.01333,1.12 1.76,0 2.85334,-0.98667 1.12,-1.01333 1.12,-2.50667 z m 1.33333,-6.66666 q 0.77333,0 1.04,0.45333 0.29333,0.45333 0.29333,1.30667 v 8.02666 h 0.42667 q 1.76,0 1.76,1.33334 0,1.33333 -1.76,1.33333 h -3.09333 v -0.93333 q -1.92,1.30666 -4.02667,1.30666 -2.98667,0 -4.8,-1.78666 -1.78667,-1.78667 -1.78667,-4.42667 0,-2.64 1.78667,-4.4 1.81333,-1.78667 4.82667,-1.78667 2.32,0 4,1.33334 0,-1.76 1.33333,-1.76 z"
         id="path5753"
         inkscape:connector-curvature="0" />
      <path
         d="m 254.74869,162.68034 q 0,-1.33333 1.76,-1.33333 v -8.45334 q 0,-2.64 2,-4.42666 2,-1.78667 4.96,-1.78667 2.82666,0 4.8,1.81333 2,1.81334 2,4.4 0,2.61334 -2,4.42667 -2,1.78667 -4.88,1.78667 -2.37334,0 -4.21334,-1.28 v 3.52 h 0.74667 q 0.85333,0 1.30667,0.26666 0.45333,0.29334 0.45333,1.06667 0,1.33333 -1.76,1.33333 h -3.41333 -0.26667 q -0.8,0 -1.14667,-0.42666 -0.34666,-0.4 -0.34666,-0.90667 z m 4.42666,-9.78667 q 0,1.49334 1.2,2.53334 1.22667,1.01333 3.01334,1.01333 1.78666,0 2.98666,-1.01333 1.22667,-1.04 1.22667,-2.53334 0,-1.49333 -1.22667,-2.50666 -1.2,-1.04 -2.93333,-1.04 -1.81333,0 -3.04,1.01333 -1.22667,1.01333 -1.22667,2.53333 z"
         id="path5755"
         inkscape:connector-curvature="0" />
      <path
         d="m 286.9516,148.36034 q 0,1.33333 -1.76,1.33333 h -0.45333 l -3.94667,5.97334 3.01333,5.38666 q 0.16,0.29334 1.12,0.29334 h 0.74667 q 0.56,0 0.93333,0.37333 0.4,0.4 0.4,0.96 0,0.56 -0.4,0.93333 -0.37333,0.4 -0.93333,0.4 -0.82667,0 -1.30667,-0.0533 -0.45333,-0.0267 -1.09333,-0.18667 -0.61333,-0.13333 -1.06667,-0.50666 -0.42666,-0.34667 -0.74666,-0.93334 l -2.34667,-4.16 -2.16,3.17334 q 1.68,0 1.68,1.33333 0,1.33333 -1.76,1.33333 h -3.6 q -0.85333,0 -1.30667,-0.29333 -0.45333,-0.26667 -0.45333,-1.04 0,-1.33333 1.76,-1.33333 h 0.48 l 3.92,-5.81334 -2.56,-4.69333 q -0.21333,-0.4 -0.37333,-0.61333 -0.16,-0.21334 -0.48,-0.37334 -0.29334,-0.16 -0.69334,-0.16 h -0.74666 q -0.56,0 -0.96,-0.37333 -0.37334,-0.4 -0.37334,-0.96 0,-0.56 0.37334,-0.93333 0.4,-0.4 0.96,-0.4 h 0.74666 q 2.48,0 3.89334,2.53333 l 1.89333,3.46667 2.18667,-3.33334 q -1.70667,0 -1.70667,-1.33333 0,-1.33333 1.76,-1.33333 h 3.6 q 0.85333,0 1.30667,0.29333 0.45333,0.26667 0.45333,1.04 z"
         id="path5757"
         inkscape:connector-curvature="0" />
      <path
         d="m 290.16786,148.36034 q 0,-0.8 0.45333,-1.06667 0.48,-0.26666 1.33334,-0.26666 h 4.74666 v 7.04 q 0,1.06666 0.56,1.73333 0.58667,0.64 1.52,0.64 0.58667,0 1.17334,-0.18667 0.61333,-0.18666 0.72,-0.18666 0.50666,0 0.88,0.4 0.4,0.4 0.4,0.93333 0,0.8 -0.85334,1.25333 -0.85333,0.45334 -2.4,0.45334 -1.97333,0 -3.33333,-1.44 -1.33333,-1.46667 -1.33333,-3.6 v -4.37334 h -2.08 q -1.78667,0 -1.78667,-1.33333 z"
         id="path5759"
         inkscape:connector-curvature="0" />
      <path
         d="m 311.41076,149.34701 q -1.81334,0 -3.04,1.01333 -1.22667,1.01333 -1.22667,2.53333 0,1.49334 1.2,2.53334 1.22667,1.01333 3.01333,1.01333 1.78667,0 2.98667,-1.01333 1.22667,-1.04 1.22667,-2.53334 0,-1.49333 -1.22667,-2.50666 -1.2,-1.04 -2.93333,-1.04 z m 5.62666,0 q 1.2,1.62666 1.2,3.54666 0,2.61334 -2,4.42667 -2,1.78667 -4.88,1.78667 -2.88,0 -4.88,-1.78667 -2,-1.81333 -2,-4.42667 0,-2.64 2,-4.42666 2,-1.78667 4.96,-1.78667 h 6.64 q 0.56,0 0.93334,0.4 0.4,0.37333 0.4,0.93333 0,0.56 -0.4,0.96 -0.37334,0.37334 -0.93334,0.37334 z"
         id="path5761"
         inkscape:connector-curvature="0" />
      <path
         d="m 333.40035,156.01367 v 0.88 q 0,1.76 -1.36,1.76 -0.45333,0 -0.85333,-0.32 -1.62667,0.77334 -3.94667,0.77334 -2.58667,0 -4.26667,-1.06667 -1.68,-1.06667 -1.68,-2.69333 0,-0.77334 0.4,-1.52 0.42667,-0.74667 1.09334,-1.14667 v -0.26667 q -0.93334,-0.8 -0.93334,-2.08 0,-1.6 1.54667,-2.61333 1.54667,-1.04 3.94667,-1.04 1.94666,0 3.44,0.69333 0.29333,-0.69333 0.85333,-0.69333 1.25333,0 1.25333,1.76 v 0.98667 q 0,1.76 -1.33333,1.76 -0.8,0 -1.25333,-0.82667 l -0.13334,-0.24 q -1.09333,-0.77333 -2.74666,-0.77333 -1.01334,0 -1.84,0.29333 -0.8,0.26667 -0.8,0.64 0,0.42667 0.82666,0.72 0.85334,0.26667 2.10667,0.26667 h 0.82667 0.10666 q 1.68,0 1.68,1.33333 0,1.33333 -1.62666,1.33333 h -1.12 q -1.25334,0 -2.32,0.4 -1.04,0.37334 -1.04,0.96 0,0.45334 0.90666,0.8 0.93334,0.34667 2.21334,0.34667 2.18666,0 3.33333,-1.04 0.34667,-1.17333 1.36,-1.17333 1.36,0 1.36,1.78666 z"
         id="path5763"
         inkscape:connector-curvature="0" />
      <path
         d="m 23.491589,181.69368 q 0,1.33334 -1.76,1.33334 h -0.133334 l 2.640001,5.94666 q 2.746666,-2.93333 3.28,-5.94666 h -0.426667 q -1.76,0 -1.76,-1.33334 0,-1.33333 1.76,-1.33333 h 3.173334 v 2.66667 q -0.346667,2.29333 -1.626667,4.4 -1.253334,2.08 -3.36,4.58666 h -2.773334 l -3.92,-8.98666 h -0.373333 q -1.76,0 -1.76,-1.33334 0,-1.33333 1.76,-1.33333 h 3.52 q 0.853333,0 1.306667,0.29333 0.453333,0.26667 0.453333,1.04 z"
         id="path5765"
         inkscape:connector-curvature="0" />
      <path
         d="m 43.02784,186.22702 q 0,-1.6 -1.093334,-2.58667 -1.093333,-0.98667 -2.906666,-0.98667 -1.786667,0 -2.880001,1.04 -1.066666,1.01334 -1.066666,2.48 0,1.30667 0.96,2.42667 0.986666,1.12 3.013333,1.12 1.76,0 2.853334,-0.98667 1.12,-1.01333 1.12,-2.50666 z m 1.333333,-6.66667 q 0.773333,0 1.04,0.45333 0.293334,0.45334 0.293334,1.30667 v 8.02667 h 0.426666 q 1.76,0 1.76,1.33333 0,1.33333 -1.76,1.33333 H 43.02784 v -0.93333 q -1.92,1.30667 -4.026667,1.30667 -2.986667,0 -4.8,-1.78667 -1.786667,-1.78667 -1.786667,-4.42667 0,-2.64 1.786667,-4.4 1.813333,-1.78666 4.826667,-1.78666 2.32,0 4,1.33333 0,-1.76 1.333333,-1.76 z"
         id="path5767"
         inkscape:connector-curvature="0" />
      <path
         d="m 74.500339,189.77368 q 0.586667,0 1.173333,-0.18666 0.613334,-0.18667 0.72,-0.18667 0.506667,0 0.880001,0.4 0.4,0.4 0.4,0.93333 0,0.8 -0.853334,1.25334 -0.853333,0.45333 -2.4,0.45333 -1.973333,0 -3.333333,-1.44 -1.333334,-1.46667 -1.333334,-3.6 v -4.37333 h -3.04 q -0.56,0 -0.96,-0.37334 -0.373333,-0.4 -0.373333,-0.96 0,-0.56 0.373333,-0.93333 0.4,-0.4 0.96,-0.4 h 9.28 q 0.56,0 0.933334,0.4 0.4,0.37333 0.4,0.93333 0,0.56 -0.4,0.96 -0.373334,0.37334 -0.933334,0.37334 h -3.573333 v 4.37333 q 0,1.06667 0.56,1.73333 0.586667,0.64 1.52,0.64 z"
         id="path5769"
         inkscape:connector-curvature="0" />
      <path
         d="m 87.583258,180.01368 q 2.826667,0 4.8,1.81334 2,1.81333 2,4.4 0,2.61333 -2,4.42666 -2,1.78667 -4.88,1.78667 -2.88,0 -4.88,-1.78667 -2,-1.81333 -2,-4.42666 0,-2.64 2,-4.42667 2,-1.78667 4.96,-1.78667 z m -0.02667,2.66667 q -1.813333,0 -3.04,1.01333 -1.226666,1.01334 -1.226666,2.53334 0,1.49333 1.2,2.53333 1.226666,1.01333 3.013333,1.01333 1.786667,0 2.986667,-1.01333 1.226667,-1.04 1.226667,-2.53333 0,-1.49334 -1.226667,-2.50667 -1.2,-1.04 -2.933334,-1.04 z"
         id="path5771"
         inkscape:connector-curvature="0" />
      <path
         d="m 103.38618,189.77368 q 1.14666,0 2.02666,-0.56 0.88,-0.56 0.88,-2.02666 v -4.16 h -0.50666 q -1.76,0 -1.76,-1.33334 0,-1.33333 1.76,-1.33333 h 3.6 q 0.85333,0 1.30666,0.29333 0.45334,0.26667 0.45334,1.04 0,1.33334 -1.76,1.33334 h -0.42667 v 4.56 q 0,2.4 -1.52,3.62666 -1.49333,1.22667 -4.10667,1.22667 -2.50666,0 -3.946663,-1.22667 -1.44,-1.22666 -1.44,-3.57333 v -4.61333 h -0.72 q -0.666667,0 -1.066667,-0.37334 -0.4,-0.37333 -0.4,-0.96 0,-0.77333 0.453334,-1.04 0.453333,-0.29333 1.306666,-0.29333 h 3.09333 v 6.93333 q 0,1.17334 0.58667,1.84 0.61333,0.64 2.18667,0.64 z"
         id="path5773"
         inkscape:connector-curvature="0" />
      <path
         d="m 124.01576,180.09368 q 0.56,0 0.8,0.4 0.26666,0.37334 0.26666,0.85334 v 2.26666 q 0,1.44 -1.28,1.44 -0.0533,-0.08 -0.29333,-0.18666 -0.21333,-0.13334 -0.37333,-0.37334 -0.16,-0.26666 -0.16,-0.72 0,-0.18666 -0.16,-0.48 -0.13334,-0.29333 -0.45334,-0.64 -0.29333,-0.34666 -0.98666,-0.58666 -0.69334,-0.24 -1.6,-0.24 -1.68,0 -2.4,0.56 -0.69334,0.56 -0.69334,1.33333 0,0.90667 1.14667,1.36 1.14667,0.45333 2.72,0.69333 1.6,0.24 2.02667,0.48 2.05333,0.96 2.05333,3.01334 0,1.68 -1.57333,2.74666 -1.46667,0.96 -2.96,0.96 h -0.50667 q -1.41333,0 -2.72,-0.82666 -0.50667,0.37333 -0.72,0.37333 -1.09333,0 -1.09333,-1.33333 v -1.92 q 0,-1.30667 1.09333,-1.30667 0.16,0 0.37333,0.08 0.21334,0.0533 0.42667,0.34667 0.24,0.26666 0.24,0.72 0,0.8 0.90667,1.14666 0.93333,0.34667 1.68,0.34667 l 0.26666,0.0533 q 0.66667,0 1.17334,-0.16 0.50666,-0.18666 0.74666,-0.42666 0.24,-0.24 0.34667,-0.42667 0.13333,-0.21333 0.13333,-0.37333 0,-0.72 -0.98666,-1.01334 -0.98667,-0.29333 -2.42667,-0.45333 -1.41333,-0.18667 -1.97333,-0.50667 -0.56,-0.24 -1.06667,-0.61333 -0.48,-0.37333 -0.98667,-1.17333 -0.50666,-0.8 -0.50666,-1.78667 0,-1.73333 1.33333,-2.88 1.36,-1.17333 3.6,-1.17333 h 0.29333 q 2,0 3.41334,0.85333 l 0.08,-0.08 q 0.10666,-0.08 0.18666,-0.13333 0.08,-0.08 0.24,-0.13334 0.18667,-0.08 0.37334,-0.08 z"
         id="path5775"
         inkscape:connector-curvature="0" />
      <path
         d="m 144.26159,176.70702 q 0,-0.48 0.34667,-0.90667 0.37333,-0.42667 1.14667,-0.42667 h 0.26666 2.58667 q 0.50667,0 0.90667,0.13334 0.4,0.13333 0.64,0.29333 0.26666,0.13333 0.50666,0.48 0.26667,0.32 0.37334,0.53333 0.10666,0.18667 0.29333,0.64 0.21333,0.42667 0.29333,0.58667 l 5.89334,11.30667 q 1.38666,0.13333 1.38666,1.33333 0,1.33333 -1.76,1.33333 h -2.45333 q -1.78667,0 -1.78667,-1.33333 0,-1.33333 1.70667,-1.33333 l -3.2,-5.94667 -3.04,5.94667 q 1.57333,0.0533 1.57333,1.33333 0,1.33333 -1.76,1.33333 h -2.4 q -1.76,0 -1.76,-1.33333 0,-1.17333 1.30667,-1.33333 l 4.58667,-8.90667 -1.22667,-2.4 h -2.66667 q -1.76,0 -1.76,-1.33333 z"
         id="path5777"
         inkscape:connector-curvature="0" />
      <path
         d="m 171.90451,174.01368 -2.72,3.86667 q -0.32,0.42667 -0.74667,0.42667 -0.45333,0 -0.88,-0.37334 -0.4,-0.37333 -0.4,-0.77333 0,-0.26667 0.37333,-0.8 l 2.74667,-3.84 q 0.42667,-0.42667 0.74667,-0.42667 0.48,0 0.85333,0.34667 0.37333,0.34667 0.37333,0.72 0,0.37333 -0.34666,0.85333 z m 1.6,15.33334 v 0.88 q 0,1.76 -1.36,1.76 -0.45334,0 -0.85334,-0.32 -1.62666,0.77333 -3.94666,0.77333 -2.58667,0 -4.26667,-1.06667 -1.68,-1.06666 -1.68,-2.69333 0,-0.77333 0.4,-1.52 0.42667,-0.74667 1.09333,-1.14667 v -0.26666 q -0.93333,-0.8 -0.93333,-2.08 0,-1.6 1.54667,-2.61334 1.54666,-1.04 3.94666,-1.04 1.94667,0 3.44,0.69334 0.29334,-0.69334 0.85334,-0.69334 1.25333,0 1.25333,1.76 v 0.98667 q 0,1.76 -1.33333,1.76 -0.8,0 -1.25334,-0.82667 l -0.13333,-0.24 q -1.09333,-0.77333 -2.74667,-0.77333 -1.01333,0 -1.84,0.29333 -0.8,0.26667 -0.8,0.64 0,0.42667 0.82667,0.72 0.85333,0.26667 2.10667,0.26667 h 0.82666 0.10667 q 1.68,0 1.68,1.33333 0,1.33334 -1.62667,1.33334 h -1.12 q -1.25333,0 -2.32,0.4 -1.04,0.37333 -1.04,0.96 0,0.45333 0.90667,0.8 0.93333,0.34666 2.21333,0.34666 2.18667,0 3.33334,-1.04 0.34666,-1.17333 1.36,-1.17333 1.36,0 1.36,1.78667 z"
         id="path5779"
         inkscape:connector-curvature="0" />
      <path
         d="m 189.4941,189.34702 v 0.88 q 0,1.76 -1.36,1.76 -0.45333,0 -0.85333,-0.32 -1.62667,0.77333 -3.94667,0.77333 -2.58667,0 -4.26667,-1.06667 -1.68,-1.06666 -1.68,-2.69333 0,-0.77333 0.4,-1.52 0.42667,-0.74667 1.09334,-1.14667 v -0.26666 q -0.93334,-0.8 -0.93334,-2.08 0,-1.6 1.54667,-2.61334 1.54667,-1.04 3.94667,-1.04 1.94666,0 3.44,0.69334 0.29333,-0.69334 0.85333,-0.69334 1.25333,0 1.25333,1.76 v 0.98667 q 0,1.76 -1.33333,1.76 -0.8,0 -1.25333,-0.82667 l -0.13334,-0.24 q -1.09333,-0.77333 -2.74666,-0.77333 -1.01334,0 -1.84,0.29333 -0.8,0.26667 -0.8,0.64 0,0.42667 0.82666,0.72 0.85334,0.26667 2.10667,0.26667 h 0.82667 0.10666 q 1.68,0 1.68,1.33333 0,1.33334 -1.62666,1.33334 h -1.12 q -1.25334,0 -2.32,0.4 -1.04,0.37333 -1.04,0.96 0,0.45333 0.90666,0.8 0.93334,0.34666 2.21334,0.34666 2.18666,0 3.33333,-1.04 0.34667,-1.17333 1.36,-1.17333 1.36,0 1.36,1.78667 z"
         id="path5781"
         inkscape:connector-curvature="0" />
      <path
         d="m 194.23034,181.69368 q 0,-0.8 0.45334,-1.06666 0.48,-0.26667 1.33333,-0.26667 h 4.74667 v 7.04 q 0,1.06667 0.56,1.73333 0.58666,0.64 1.52,0.64 0.58666,0 1.17333,-0.18666 0.61333,-0.18667 0.72,-0.18667 0.50667,0 0.88,0.4 0.4,0.4 0.4,0.93333 0,0.8 -0.85333,1.25334 -0.85334,0.45333 -2.4,0.45333 -1.97334,0 -3.33334,-1.44 -1.33333,-1.46667 -1.33333,-3.6 v -4.37333 h -2.08 q -1.78667,0 -1.78667,-1.33334 z"
         id="path5783"
         inkscape:connector-curvature="0" />
      <path
         d="m 233.78285,174.01368 -2.72,3.86667 q -0.32,0.42667 -0.74667,0.42667 -0.45333,0 -0.88,-0.37334 -0.4,-0.37333 -0.4,-0.77333 0,-0.26667 0.37334,-0.8 l 2.74666,-3.84 q 0.42667,-0.42667 0.74667,-0.42667 0.48,0 0.85333,0.34667 0.37334,0.34667 0.37334,0.72 0,0.37333 -0.34667,0.85333 z m -2.29333,6 q 2.82666,0 4.8,1.81334 2,1.81333 2,4.4 0,2.61333 -2,4.42666 -2,1.78667 -4.88,1.78667 -2.88,0 -4.88,-1.78667 -2,-1.81333 -2,-4.42666 0,-2.64 2,-4.42667 2,-1.78667 4.96,-1.78667 z m -0.0267,2.66667 q -1.81333,0 -3.04,1.01333 -1.22667,1.01334 -1.22667,2.53334 0,1.49333 1.2,2.53333 1.22667,1.01333 3.01334,1.01333 1.78666,0 2.98666,-1.01333 1.22667,-1.04 1.22667,-2.53333 0,-1.49334 -1.22667,-2.50667 -1.2,-1.04 -2.93333,-1.04 z"
         id="path5785"
         inkscape:connector-curvature="0" />
      <path
         d="m 250.38576,189.77368 q 0.58667,0 1.17333,-0.18666 0.61334,-0.18667 0.72,-0.18667 0.50667,0 0.88,0.4 0.4,0.4 0.4,0.93333 0,0.8 -0.85333,1.25334 -0.85333,0.45333 -2.4,0.45333 -1.97333,0 -3.33333,-1.44 -1.33334,-1.46667 -1.33334,-3.6 v -4.37333 h -3.04 q -0.56,0 -0.96,-0.37334 -0.37333,-0.4 -0.37333,-0.96 0,-0.56 0.37333,-0.93333 0.4,-0.4 0.96,-0.4 h 9.28 q 0.56,0 0.93334,0.4 0.4,0.37333 0.4,0.93333 0,0.56 -0.4,0.96 -0.37334,0.37334 -0.93334,0.37334 h -3.57333 v 4.37333 q 0,1.06667 0.56,1.73333 0.58667,0.64 1.52,0.64 z"
         id="path5787"
         inkscape:connector-curvature="0" />
      <path
         d="m 258.18869,181.69368 q 0,-0.8 0.45333,-1.06666 0.48,-0.26667 1.33333,-0.26667 h 4.74667 v 7.04 q 0,1.06667 0.56,1.73333 0.58667,0.64 1.52,0.64 0.58667,0 1.17333,-0.18666 0.61334,-0.18667 0.72,-0.18667 0.50667,0 0.88,0.4 0.4,0.4 0.4,0.93333 0,0.8 -0.85333,1.25334 -0.85333,0.45333 -2.4,0.45333 -1.97333,0 -3.33333,-1.44 -1.33334,-1.46667 -1.33334,-3.6 v -4.37333 h -2.08 q -1.78666,0 -1.78666,-1.33334 z"
         id="path5789"
         inkscape:connector-curvature="0" />
      <path
         d="m 28.344922,222.68036 q 1.813334,0 1.813334,1.33333 0,1.33334 -1.813334,1.33334 h -3.146666 q -1.76,0 -1.76,-1.33334 0,-0.53333 0.426666,-0.98666 l -2.08,-2.05334 v 4.37334 h -3.093333 q -1.76,0 -1.76,-1.33334 0,-1.33333 1.76,-1.33333 h 0.426666 v -6.32 h -0.426666 q -0.853334,0 -1.306667,-0.26667 -0.453333,-0.29333 -0.453333,-1.06666 0,-1.33334 1.76,-1.33334 h 3.093333 v 4 l 2.133334,-1.68 q -0.426667,-0.50666 -0.426667,-0.98666 0,-1.33334 1.76,-1.33334 h 2.986667 q 0.853333,0 1.306667,0.29334 0.453333,0.26666 0.453333,1.04 0,1.33333 -1.76,1.33333 h -0.746667 l -3.626667,2.93333 3.626667,3.38667 z"
         id="path5791"
         inkscape:connector-curvature="0" />
      <path
         d="m 42.121173,206.89369 -2.72,3.86667 q -0.32,0.42667 -0.746667,0.42667 -0.453333,0 -0.88,-0.37334 -0.4,-0.37333 -0.4,-0.77333 0,-0.26667 0.373333,-0.8 l 2.746667,-3.84 q 0.426667,-0.42667 0.746667,-0.42667 0.48,0 0.853333,0.34667 0.373334,0.34667 0.373334,0.72 0,0.37333 -0.346667,0.85333 z m 0.906667,12.66667 q 0,-1.6 -1.093334,-2.58667 -1.093333,-0.98666 -2.906666,-0.98666 -1.786667,0 -2.880001,1.04 -1.066666,1.01333 -1.066666,2.48 0,1.30666 0.96,2.42666 0.986666,1.12 3.013333,1.12 1.76,0 2.853334,-0.98666 1.12,-1.01334 1.12,-2.50667 z m 1.333333,-6.66667 q 0.773333,0 1.04,0.45334 0.293334,0.45333 0.293334,1.30666 v 8.02667 h 0.426666 q 1.76,0 1.76,1.33333 0,1.33334 -1.76,1.33334 H 43.02784 v -0.93334 q -1.92,1.30667 -4.026667,1.30667 -2.986667,0 -4.8,-1.78667 -1.786667,-1.78666 -1.786667,-4.42666 0,-2.64 1.786667,-4.4 1.813333,-1.78667 4.826667,-1.78667 2.32,0 4,1.33333 0,-1.76 1.333333,-1.76 z"
         id="path5793"
         inkscape:connector-curvature="0" />
      <path
         d="m 55.52409,208.73369 q 2.826667,0 4.293334,2.16 1.493333,2.16 1.493333,5.28 v 2.13334 q 0,2 -0.613333,3.65333 -0.586667,1.62667 -1.946667,2.72 -1.333333,1.06667 -3.226667,1.06667 -2.826667,0 -4.32,-2.16 -1.466667,-2.16 -1.466667,-5.28 v -2.13334 q 0,-2 0.586667,-3.62666 0.613333,-1.65334 1.946667,-2.72 1.36,-1.09334 3.253333,-1.09334 z m -3.12,7.2 h 6.24 q -0.02667,-2.08 -0.88,-3.30666 -0.826666,-1.22667 -2.24,-1.22667 -1.413333,0 -2.266667,1.22667 -0.826666,1.22666 -0.853333,3.30666 z m 6.24,2.66667 h -6.24 q 0.02667,2.02667 0.853333,3.25333 0.853334,1.22667 2.266667,1.22667 1.413334,0 2.24,-1.22667 0.853334,-1.22666 0.88,-3.25333 z"
         id="path5795"
         inkscape:connector-curvature="0" />
      <path
         d="m 77.567006,222.68036 v 0.88 q 0,1.76 -1.36,1.76 -0.453334,0 -0.853334,-0.32 -1.626666,0.77333 -3.946666,0.77333 -2.586667,0 -4.266667,-1.06666 -1.68,-1.06667 -1.68,-2.69334 0,-0.77333 0.4,-1.52 0.426666,-0.74666 1.093333,-1.14666 v -0.26667 q -0.933333,-0.8 -0.933333,-2.08 0,-1.6 1.546666,-2.61333 1.546667,-1.04 3.946667,-1.04 1.946667,0 3.44,0.69333 0.293334,-0.69333 0.853334,-0.69333 1.253333,0 1.253333,1.76 v 0.98666 q 0,1.76 -1.333333,1.76 -0.8,0 -1.253334,-0.82666 l -0.133333,-0.24 q -1.093333,-0.77334 -2.746667,-0.77334 -1.013333,0 -1.84,0.29334 -0.8,0.26666 -0.8,0.64 0,0.42666 0.826667,0.72 0.853333,0.26666 2.106667,0.26666 h 0.826666 0.106667 q 1.68,0 1.68,1.33334 0,1.33333 -1.626667,1.33333 h -1.12 q -1.253333,0 -2.32,0.4 -1.04,0.37333 -1.04,0.96 0,0.45333 0.906667,0.8 0.933333,0.34667 2.213333,0.34667 2.186667,0 3.333334,-1.04 0.346666,-1.17334 1.36,-1.17334 1.36,0 1.36,1.78667 z"
         id="path5797"
         inkscape:connector-curvature="0" />
      <path
         d="m 107.94618,207.34703 -2.72,3.86666 q -0.32,0.42667 -0.74667,0.42667 -0.45333,0 -0.88,-0.37333 -0.4,-0.37334 -0.4,-0.77334 0,-0.26666 0.37333,-0.8 l 2.74667,-3.84 q 0.42667,-0.42666 0.74667,-0.42666 0.48,0 0.85333,0.34666 0.37333,0.34667 0.37333,0.72 0,0.37334 -0.34666,0.85334 z m 1.6,15.33333 v 0.88 q 0,1.76 -1.36,1.76 -0.45334,0 -0.85334,-0.32 -1.62666,0.77333 -3.94666,0.77333 -2.58667,0 -4.26667,-1.06666 -1.68,-1.06667 -1.68,-2.69334 0,-0.77333 0.4,-1.52 0.426667,-0.74666 1.093334,-1.14666 v -0.26667 q -0.933334,-0.8 -0.933334,-2.08 0,-1.6 1.546667,-2.61333 1.546663,-1.04 3.946663,-1.04 1.94667,0 3.44,0.69333 0.29334,-0.69333 0.85334,-0.69333 1.25333,0 1.25333,1.76 v 0.98666 q 0,1.76 -1.33333,1.76 -0.8,0 -1.25334,-0.82666 l -0.13333,-0.24 q -1.09333,-0.77334 -2.74667,-0.77334 -1.01333,0 -1.84,0.29334 -0.8,0.26666 -0.8,0.64 0,0.42666 0.82667,0.72 0.85333,0.26666 2.10667,0.26666 h 0.82666 0.10667 q 1.68,0 1.68,1.33334 0,1.33333 -1.62667,1.33333 h -1.12 q -1.25333,0 -2.32,0.4 -1.04,0.37333 -1.04,0.96 0,0.45333 0.90667,0.8 0.93333,0.34667 2.21333,0.34667 2.18667,0 3.33334,-1.04 0.34666,-1.17334 1.36,-1.17334 1.36,0 1.36,1.78667 z"
         id="path5799"
         inkscape:connector-curvature="0" />
      <path
         d="m 119.42909,215.02703 q 0,1.33333 -1.76,1.33333 h -0.13333 l 2.64,5.94667 q 2.74666,-2.93334 3.28,-5.94667 h -0.42667 q -1.76,0 -1.76,-1.33333 0,-1.33334 1.76,-1.33334 h 3.17333 v 2.66667 q -0.34666,2.29333 -1.62666,4.4 -1.25334,2.08 -3.36,4.58667 h -2.77334 l -3.92,-8.98667 h -0.37333 q -1.76,0 -1.76,-1.33333 0,-1.33334 1.76,-1.33334 h 3.52 q 0.85333,0 1.30667,0.29334 0.45333,0.26666 0.45333,1.04 z"
         id="path5801"
         inkscape:connector-curvature="0" />
      <path
         d="m 138.96534,219.56036 q 0,-1.6 -1.09333,-2.58667 -1.09334,-0.98666 -2.90667,-0.98666 -1.78667,0 -2.88,1.04 -1.06667,1.01333 -1.06667,2.48 0,1.30666 0.96,2.42666 0.98667,1.12 3.01334,1.12 1.76,0 2.85333,-0.98666 1.12,-1.01334 1.12,-2.50667 z m 1.33334,-6.66667 q 0.77333,0 1.04,0.45334 0.29333,0.45333 0.29333,1.30666 v 8.02667 h 0.42667 q 1.76,0 1.76,1.33333 0,1.33334 -1.76,1.33334 h -3.09334 v -0.93334 q -1.92,1.30667 -4.02667,1.30667 -2.98666,0 -4.8,-1.78667 -1.78666,-1.78666 -1.78666,-4.42666 0,-2.64 1.78666,-4.4 1.81334,-1.78667 4.82667,-1.78667 2.32,0 4,1.33333 0,-1.76 1.33334,-1.76 z"
         id="path5803"
         inkscape:connector-curvature="0" />
      <path
         d="m 155.99493,213.42703 q 0.56,0 0.8,0.4 0.26666,0.37333 0.26666,0.85333 v 2.26667 q 0,1.44 -1.28,1.44 -0.0533,-0.08 -0.29333,-0.18667 -0.21333,-0.13333 -0.37333,-0.37333 -0.16,-0.26667 -0.16,-0.72 0,-0.18667 -0.16,-0.48 -0.13334,-0.29334 -0.45334,-0.64 -0.29333,-0.34667 -0.98666,-0.58667 -0.69334,-0.24 -1.6,-0.24 -1.68,0 -2.4,0.56 -0.69334,0.56 -0.69334,1.33333 0,0.90667 1.14667,1.36 1.14667,0.45334 2.72,0.69334 1.6,0.24 2.02667,0.48 2.05333,0.96 2.05333,3.01333 0,1.68 -1.57333,2.74667 -1.46667,0.96 -2.96,0.96 h -0.50667 q -1.41333,0 -2.72,-0.82667 -0.50667,0.37333 -0.72,0.37333 -1.09333,0 -1.09333,-1.33333 v -1.92 q 0,-1.30667 1.09333,-1.30667 0.16,0 0.37333,0.08 0.21334,0.0533 0.42667,0.34667 0.24,0.26667 0.24,0.72 0,0.8 0.90667,1.14667 0.93333,0.34666 1.68,0.34666 l 0.26666,0.0533 q 0.66667,0 1.17334,-0.16 0.50666,-0.18667 0.74666,-0.42667 0.24,-0.24 0.34667,-0.42667 0.13333,-0.21333 0.13333,-0.37333 0,-0.72 -0.98666,-1.01333 -0.98667,-0.29334 -2.42667,-0.45334 -1.41333,-0.18666 -1.97333,-0.50666 -0.56,-0.24 -1.06667,-0.61334 -0.48,-0.37333 -0.98667,-1.17333 -0.50666,-0.8 -0.50666,-1.78667 0,-1.73333 1.33333,-2.88 1.36,-1.17333 3.6,-1.17333 h 0.29333 q 2,0 3.41334,0.85333 l 0.08,-0.08 q 0.10666,-0.08 0.18666,-0.13333 0.08,-0.08 0.24,-0.13333 0.18667,-0.08 0.37334,-0.08 z"
         id="path5805"
         inkscape:connector-curvature="0" />
      <path
         d="m 186.02743,206.89369 -2.72,3.86667 q -0.32,0.42667 -0.74666,0.42667 -0.45334,0 -0.88,-0.37334 -0.4,-0.37333 -0.4,-0.77333 0,-0.26667 0.37333,-0.8 l 2.74667,-3.84 q 0.42666,-0.42667 0.74666,-0.42667 0.48,0 0.85334,0.34667 0.37333,0.34667 0.37333,0.72 0,0.37333 -0.34667,0.85333 z m 0.90667,12.66667 q 0,-1.6 -1.09333,-2.58667 -1.09334,-0.98666 -2.90667,-0.98666 -1.78667,0 -2.88,1.04 -1.06667,1.01333 -1.06667,2.48 0,1.30666 0.96,2.42666 0.98667,1.12 3.01334,1.12 1.76,0 2.85333,-0.98666 1.12,-1.01334 1.12,-2.50667 z m 1.33333,-6.66667 q 0.77334,0 1.04,0.45334 0.29334,0.45333 0.29334,1.30666 v 8.02667 h 0.42666 q 1.76,0 1.76,1.33333 0,1.33334 -1.76,1.33334 h -3.09333 v -0.93334 q -1.92,1.30667 -4.02667,1.30667 -2.98666,0 -4.8,-1.78667 -1.78666,-1.78666 -1.78666,-4.42666 0,-2.64 1.78666,-4.4 1.81334,-1.78667 4.82667,-1.78667 2.32,0 4,1.33333 0,-1.76 1.33333,-1.76 z"
         id="path5807"
         inkscape:connector-curvature="0" />
      <path
         d="m 199.37701,215.02703 q 0,1.33333 -1.76,1.33333 h -0.13333 l 2.64,5.94667 q 2.74666,-2.93334 3.28,-5.94667 h -0.42667 q -1.76,0 -1.76,-1.33333 0,-1.33334 1.76,-1.33334 h 3.17333 v 2.66667 q -0.34666,2.29333 -1.62666,4.4 -1.25334,2.08 -3.36,4.58667 h -2.77334 l -3.92,-8.98667 h -0.37333 q -1.76,0 -1.76,-1.33333 0,-1.33334 1.76,-1.33334 h 3.52 q 0.85333,0 1.30667,0.29334 0.45333,0.26666 0.45333,1.04 z"
         id="path5809"
         inkscape:connector-curvature="0" />
      <path
         d="m 215.41992,208.73369 q 2.82667,0 4.29334,2.16 1.49333,2.16 1.49333,5.28 v 2.13334 q 0,2 -0.61333,3.65333 -0.58667,1.62667 -1.94667,2.72 -1.33333,1.06667 -3.22667,1.06667 -2.82666,0 -4.32,-2.16 -1.46666,-2.16 -1.46666,-5.28 v -2.13334 q 0,-2 0.58666,-3.62666 0.61334,-1.65334 1.94667,-2.72 1.36,-1.09334 3.25333,-1.09334 z m -3.12,7.2 h 6.24 q -0.0267,-2.08 -0.88,-3.30666 -0.82666,-1.22667 -2.24,-1.22667 -1.41333,0 -2.26666,1.22667 -0.82667,1.22666 -0.85334,3.30666 z m 6.24,2.66667 h -6.24 q 0.0267,2.02667 0.85334,3.25333 0.85333,1.22667 2.26666,1.22667 1.41334,0 2.24,-1.22667 0.85334,-1.22666 0.88,-3.25333 z"
         id="path5811"
         inkscape:connector-curvature="0" />
      <path
         d="m 222.76952,229.34703 q 0,-1.33334 1.76,-1.33334 v -8.45333 q 0,-2.64 2,-4.42667 2,-1.78666 4.96,-1.78666 2.82666,0 4.8,1.81333 2,1.81333 2,4.4 0,2.61333 -2,4.42667 -2,1.78666 -4.88,1.78666 -2.37334,0 -4.21334,-1.28 v 3.52 h 0.74667 q 0.85333,0 1.30667,0.26667 0.45333,0.29333 0.45333,1.06667 0,1.33333 -1.76,1.33333 h -3.41333 -0.26667 q -0.8,0 -1.14667,-0.42667 -0.34666,-0.4 -0.34666,-0.90666 z m 4.42666,-9.78667 q 0,1.49333 1.2,2.53333 1.22667,1.01334 3.01334,1.01334 1.78666,0 2.98666,-1.01334 1.22667,-1.04 1.22667,-2.53333 0,-1.49333 -1.22667,-2.50667 -1.2,-1.04 -2.93333,-1.04 -1.81333,0 -3.04,1.01334 -1.22667,1.01333 -1.22667,2.53333 z"
         id="path5813"
         inkscape:connector-curvature="0" />
      <path
         d="m 244.73243,226.41369 q -1.14667,0 -2.05334,-0.58666 -0.90666,-0.56 -1.41333,-1.36 -0.50667,-0.82667 -0.82667,-1.84 -0.32,-1.01334 -0.42666,-1.76 -0.10667,-0.74667 -0.10667,-1.30667 0,-2.21333 1.06667,-4.02667 -0.77334,-0.21333 -0.77334,-1.06666 0,-1.14667 1.30667,-1.14667 h 2.90667 q 0.50666,0 0.90666,0.26667 0.42667,0.26666 0.42667,0.88 0,0.4 -0.4,0.8 -0.37333,0.37333 -0.93333,0.37333 h -1.01334 q -1.28,1.81333 -1.28,4.02667 0,1.25333 0.29334,2.21333 0.32,0.93333 0.77333,1.38667 0.48,0.42666 0.85333,0.64 0.37334,0.18666 0.64,0.18666 0.45334,0 1.01334,-0.45333 0.56,-0.45333 0.56,-1.41333 v -3.68 q 0,-0.58667 0.37333,-0.82667 0.4,-0.26667 0.82667,-0.26667 0.26666,0 0.66666,0.29334 0.4,0.26666 0.4,0.8 v 3.68 q 0,0.98666 0.45334,1.41333 0.48,0.4 1.04,0.4 1.30666,0 2.13333,-2.10667 0.4,-1.06666 0.4,-2.34666 0,-2.13334 -1.28,-4 h -1.01333 q -0.50667,0 -0.90667,-0.32 -0.37333,-0.34667 -0.37333,-0.85334 0,-1.14666 1.28,-1.14666 h 2.93333 q 1.36,0 1.36,1.14666 0,0.8 -0.82667,1.06667 1.06667,1.78667 1.06667,4.02667 0,2.88 -1.36,4.88 -1.33333,1.97333 -3.46667,1.97333 -1.46666,0 -2.61333,-1.14667 -0.0267,0.0267 -0.29333,0.29334 -0.26667,0.29333 -0.32,0.32 -0.0533,0.0533 -0.32,0.21333 -0.24,0.18667 -0.42667,0.21333 -0.18667,0.0533 -0.53333,0.10667 -0.32,0.0533 -0.72,0.0533 z"
         id="path5815"
         inkscape:connector-curvature="0" />
      <path
         d="m 265.84202,216.36036 h -4.93333 v 6.32 q 1.62666,0 1.62666,1.28 0,0.69333 -0.37333,1.04 -0.34667,0.34667 -1.38667,0.34667 h -2.37333 q -1.78667,0 -1.78667,-1.33334 0,-1.33333 1.62667,-1.33333 v -6.32 q -1.62667,0 -1.62667,-1.33333 0,-1.33334 1.78667,-1.33334 h 9.97333 q 1.76,0 1.76,1.33334 0,0.61333 -0.45333,0.98666 -0.45333,0.34667 -1.17333,0.34667 v 6.32 q 1.62666,0 1.62666,1.28 0,0.66667 -0.4,1.04 -0.37333,0.34667 -1.36,0.34667 h -2.37333 q -1.78667,0 -1.78667,-1.33334 0,-1.33333 1.62667,-1.33333 z"
         id="path5817"
         inkscape:connector-curvature="0" />
      <path
         d="m 279.45827,213.34703 q 2.82666,0 4.8,1.81333 2,1.81333 2,4.4 0,2.61333 -2,4.42667 -2,1.78666 -4.88,1.78666 -2.88,0 -4.88,-1.78666 -2,-1.81334 -2,-4.42667 0,-2.64 2,-4.42667 2,-1.78666 4.96,-1.78666 z m -0.0267,2.66666 q -1.81333,0 -3.04,1.01334 -1.22667,1.01333 -1.22667,2.53333 0,1.49333 1.2,2.53333 1.22667,1.01334 3.01334,1.01334 1.78666,0 2.98666,-1.01334 1.22667,-1.04 1.22667,-2.53333 0,-1.49333 -1.22667,-2.50667 -1.2,-1.04 -2.93333,-1.04 z"
         id="path5819"
         inkscape:connector-curvature="0" />
      <path
         d="m 299.90119,213.42703 q 0.56,0 0.8,0.4 0.26667,0.37333 0.26667,0.85333 v 2.26667 q 0,1.44 -1.28,1.44 -0.0533,-0.08 -0.29333,-0.18667 -0.21334,-0.13333 -0.37334,-0.37333 -0.16,-0.26667 -0.16,-0.72 0,-0.18667 -0.16,-0.48 -0.13333,-0.29334 -0.45333,-0.64 -0.29333,-0.34667 -0.98667,-0.58667 -0.69333,-0.24 -1.6,-0.24 -1.68,0 -2.4,0.56 -0.69333,0.56 -0.69333,1.33333 0,0.90667 1.14667,1.36 1.14666,0.45334 2.72,0.69334 1.6,0.24 2.02666,0.48 2.05334,0.96 2.05334,3.01333 0,1.68 -1.57334,2.74667 -1.46666,0.96 -2.96,0.96 h -0.50666 q -1.41334,0 -2.72,-0.82667 -0.50667,0.37333 -0.72,0.37333 -1.09334,0 -1.09334,-1.33333 v -1.92 q 0,-1.30667 1.09334,-1.30667 0.16,0 0.37333,0.08 0.21333,0.0533 0.42667,0.34667 0.24,0.26667 0.24,0.72 0,0.8 0.90666,1.14667 0.93334,0.34666 1.68,0.34666 l 0.26667,0.0533 q 0.66667,0 1.17333,-0.16 0.50667,-0.18667 0.74667,-0.42667 0.24,-0.24 0.34667,-0.42667 0.13333,-0.21333 0.13333,-0.37333 0,-0.72 -0.98667,-1.01333 -0.98666,-0.29334 -2.42666,-0.45334 -1.41334,-0.18666 -1.97334,-0.50666 -0.56,-0.24 -1.06666,-0.61334 -0.48,-0.37333 -0.98667,-1.17333 -0.50667,-0.8 -0.50667,-1.78667 0,-1.73333 1.33334,-2.88 1.36,-1.17333 3.6,-1.17333 h 0.29333 q 2,0 3.41333,0.85333 l 0.08,-0.08 q 0.10667,-0.08 0.18667,-0.13333 0.08,-0.08 0.24,-0.13333 0.18667,-0.08 0.37333,-0.08 z"
         id="path5821"
         inkscape:connector-curvature="0" />
      <path
         d="m 23.544922,242.06704 q 2.826667,0 4.293334,2.16 1.493333,2.16 1.493333,5.28 v 2.13333 q 0,2 -0.613333,3.65333 -0.586667,1.62667 -1.946667,2.72 -1.333333,1.06667 -3.226667,1.06667 -2.826667,0 -4.32,-2.16 -1.466667,-2.16 -1.466667,-5.28 v -2.13333 q 0,-2 0.586667,-3.62667 0.613333,-1.65333 1.946667,-2.72 1.36,-1.09333 3.253333,-1.09333 z m -3.12,7.2 h 6.24 q -0.02667,-2.08 -0.88,-3.30667 -0.826666,-1.22667 -2.24,-1.22667 -1.413333,0 -2.266667,1.22667 -0.826666,1.22667 -0.853333,3.30667 z m 6.24,2.66666 h -6.24 q 0.02667,2.02667 0.853333,3.25334 0.853334,1.22666 2.266667,1.22666 1.413334,0 2.24,-1.22666 0.853334,-1.22667 0.88,-3.25334 z"
         id="path5823"
         inkscape:connector-curvature="0" />
      <path
         d="m 43.02784,252.8937 q 0,-1.6 -1.093334,-2.58666 -1.093333,-0.98667 -2.906666,-0.98667 -1.786667,0 -2.880001,1.04 -1.066666,1.01333 -1.066666,2.48 0,1.30667 0.96,2.42667 0.986666,1.12 3.013333,1.12 1.76,0 2.853334,-0.98667 1.12,-1.01333 1.12,-2.50667 z m 1.333333,-6.66666 q 0.773333,0 1.04,0.45333 0.293334,0.45333 0.293334,1.30667 v 8.02666 h 0.426666 q 1.76,0 1.76,1.33334 0,1.33333 -1.76,1.33333 H 43.02784 v -0.93333 q -1.92,1.30666 -4.026667,1.30666 -2.986667,0 -4.8,-1.78666 -1.786667,-1.78667 -1.786667,-4.42667 0,-2.64 1.786667,-4.4 1.813333,-1.78667 4.826667,-1.78667 2.32,0 4,1.33334 0,-1.76 1.333333,-1.76 z"
         id="path5825"
         inkscape:connector-curvature="0" />
      <path
         d="m 75.967006,240.68037 -2.72,3.86667 q -0.32,0.42666 -0.746667,0.42666 -0.453333,0 -0.88,-0.37333 -0.4,-0.37333 -0.4,-0.77333 0,-0.26667 0.373333,-0.8 l 2.746667,-3.84 q 0.426667,-0.42667 0.746667,-0.42667 0.48,0 0.853333,0.34667 0.373333,0.34666 0.373333,0.72 0,0.37333 -0.346666,0.85333 z m 1.6,15.33333 v 0.88 q 0,1.76 -1.36,1.76 -0.453334,0 -0.853334,-0.32 -1.626666,0.77334 -3.946666,0.77334 -2.586667,0 -4.266667,-1.06667 -1.68,-1.06667 -1.68,-2.69333 0,-0.77334 0.4,-1.52 0.426666,-0.74667 1.093333,-1.14667 v -0.26667 q -0.933333,-0.8 -0.933333,-2.08 0,-1.6 1.546666,-2.61333 1.546667,-1.04 3.946667,-1.04 1.946667,0 3.44,0.69333 0.293334,-0.69333 0.853334,-0.69333 1.253333,0 1.253333,1.76 v 0.98667 q 0,1.76 -1.333333,1.76 -0.8,0 -1.253334,-0.82667 l -0.133333,-0.24 q -1.093333,-0.77333 -2.746667,-0.77333 -1.013333,0 -1.84,0.29333 -0.8,0.26667 -0.8,0.64 0,0.42667 0.826667,0.72 0.853333,0.26667 2.106667,0.26667 h 0.826666 0.106667 q 1.68,0 1.68,1.33333 0,1.33333 -1.626667,1.33333 h -1.12 q -1.253333,0 -2.32,0.4 -1.04,0.37334 -1.04,0.96 0,0.45334 0.906667,0.8 0.933333,0.34667 2.213333,0.34667 2.186667,0 3.333334,-1.04 0.346666,-1.17333 1.36,-1.17333 1.36,0 1.36,1.78666 z"
         id="path5827"
         inkscape:connector-curvature="0" />
      <path
         d="m 95.076592,248.36037 q 0,1.33333 -1.76,1.33333 h -0.453334 l -3.946666,5.97334 3.013333,5.38666 q 0.16,0.29334 1.12,0.29334 h 0.746667 q 0.56,0 0.933333,0.37333 0.4,0.4 0.4,0.96 0,0.56 -0.4,0.93333 -0.373333,0.4 -0.933333,0.4 -0.826667,0 -1.306667,-0.0533 -0.453333,-0.0267 -1.093333,-0.18667 -0.613334,-0.13333 -1.066667,-0.50666 -0.426667,-0.34667 -0.746667,-0.93334 l -2.346667,-4.16 -2.16,3.17334 q 1.68,0 1.68,1.33333 0,1.33333 -1.76,1.33333 h -3.6 q -0.853333,0 -1.306667,-0.29333 -0.453333,-0.26667 -0.453333,-1.04 0,-1.33333 1.76,-1.33333 h 0.48 l 3.92,-5.81334 -2.56,-4.69333 q -0.213333,-0.4 -0.373333,-0.61333 -0.16,-0.21334 -0.48,-0.37334 -0.293333,-0.16 -0.693333,-0.16 h -0.746667 q -0.56,0 -0.96,-0.37333 -0.373334,-0.4 -0.373334,-0.96 0,-0.56 0.373334,-0.93333 0.4,-0.4 0.96,-0.4 h 0.746667 q 2.48,0 3.893333,2.53333 l 1.893333,3.46667 2.186667,-3.33334 q -1.706667,0 -1.706667,-1.33333 0,-1.33333 1.760001,-1.33333 h 3.6 q 0.853333,0 1.306666,0.29333 0.453334,0.26667 0.453334,1.04 z"
         id="path5829"
         inkscape:connector-curvature="0" />
      <path
         d="m 109.54618,256.0137 v 0.88 q 0,1.76 -1.36,1.76 -0.45334,0 -0.85334,-0.32 -1.62666,0.77334 -3.94666,0.77334 -2.58667,0 -4.26667,-1.06667 -1.68,-1.06667 -1.68,-2.69333 0,-0.77334 0.4,-1.52 0.426667,-0.74667 1.093334,-1.14667 v -0.26667 q -0.933334,-0.8 -0.933334,-2.08 0,-1.6 1.546667,-2.61333 1.546663,-1.04 3.946663,-1.04 1.94667,0 3.44,0.69333 0.29334,-0.69333 0.85334,-0.69333 1.25333,0 1.25333,1.76 v 0.98667 q 0,1.76 -1.33333,1.76 -0.8,0 -1.25334,-0.82667 l -0.13333,-0.24 q -1.09333,-0.77333 -2.74667,-0.77333 -1.01333,0 -1.84,0.29333 -0.8,0.26667 -0.8,0.64 0,0.42667 0.82667,0.72 0.85333,0.26667 2.10667,0.26667 h 0.82666 0.10667 q 1.68,0 1.68,1.33333 0,1.33333 -1.62667,1.33333 h -1.12 q -1.25333,0 -2.32,0.4 -1.04,0.37334 -1.04,0.96 0,0.45334 0.90667,0.8 0.93333,0.34667 2.21333,0.34667 2.18667,0 3.33334,-1.04 0.34666,-1.17333 1.36,-1.17333 1.36,0 1.36,1.78666 z"
         id="path5831"
         inkscape:connector-curvature="0" />
      <path
         d="m 114.28242,248.36037 q 0,-0.8 0.45334,-1.06667 0.48,-0.26666 1.33333,-0.26666 h 4.74667 v 7.04 q 0,1.06666 0.56,1.73333 0.58666,0.64 1.52,0.64 0.58666,0 1.17333,-0.18667 0.61333,-0.18666 0.72,-0.18666 0.50667,0 0.88,0.4 0.4,0.4 0.4,0.93333 0,0.8 -0.85333,1.25333 -0.85334,0.45334 -2.4,0.45334 -1.97334,0 -3.33334,-1.44 -1.33333,-1.46667 -1.33333,-3.6 v -4.37334 h -2.08 q -1.78667,0 -1.78667,-1.33333 z"
         id="path5833"
         inkscape:connector-curvature="0" />
      <path
         d="m 151.51493,249.34704 q -1.81334,0 -3.04,1.01333 -1.22667,1.01333 -1.22667,2.53333 0,1.49334 1.2,2.53334 1.22667,1.01333 3.01333,1.01333 1.78667,0 2.98667,-1.01333 1.22667,-1.04 1.22667,-2.53334 0,-1.49333 -1.22667,-2.50666 -1.2,-1.04 -2.93333,-1.04 z m 5.62666,0 q 1.2,1.62666 1.2,3.54666 0,2.61334 -2,4.42667 -2,1.78667 -4.88,1.78667 -2.88,0 -4.88,-1.78667 -2,-1.81333 -2,-4.42667 0,-2.64 2,-4.42666 2,-1.78667 4.96,-1.78667 h 6.64 q 0.56,0 0.93334,0.4 0.4,0.37333 0.4,0.93333 0,0.56 -0.4,0.96 -0.37334,0.37334 -0.93334,0.37334 z"
         id="path5835"
         inkscape:connector-curvature="0" />
      <path
         d="m 170.43784,256.44037 q 0.58667,0 1.17333,-0.18667 0.61334,-0.18666 0.72,-0.18666 0.50667,0 0.88,0.4 0.4,0.4 0.4,0.93333 0,0.8 -0.85333,1.25333 -0.85333,0.45334 -2.4,0.45334 -1.97333,0 -3.33333,-1.44 -1.33334,-1.46667 -1.33334,-3.6 v -4.37334 h -3.04 q -0.56,0 -0.96,-0.37333 -0.37333,-0.4 -0.37333,-0.96 0,-0.56 0.37333,-0.93333 0.4,-0.4 0.96,-0.4 h 9.28 q 0.56,0 0.93334,0.4 0.4,0.37333 0.4,0.93333 0,0.56 -0.4,0.96 -0.37334,0.37333 -0.93334,0.37333 h -3.57333 v 4.37334 q 0,1.06666 0.56,1.73333 0.58667,0.64 1.52,0.64 z"
         id="path5837"
         inkscape:connector-curvature="0" />
      <path
         d="m 177.8141,258.68037 q -1.76,0 -1.76,-1.33333 0,-1.33334 1.76,-1.33334 h 0.16 v -6.32 q -1.62667,-0.0533 -1.62667,-1.33333 0,-1.33333 1.78667,-1.33333 h 2.50667 v 1.28 q 0.96,-0.90667 1.76,-1.25334 0.8,-0.37333 1.89333,-0.37333 2.08,0 3.41333,1.17333 1.33334,1.17334 1.33334,3.30667 v 10.18667 q 1.62666,0 1.62666,1.33333 0,1.33333 -1.76,1.33333 h -2.53333 v -12.74666 q 0,-1.92 -2.4,-1.92 -0.93333,0 -1.68,0.4 -0.72,0.4 -1.65333,1.41333 v 4.85333 h 0.16 q 1.76,0 1.76,1.33334 0,1.33333 -1.76,1.33333 z"
         id="path5839"
         inkscape:connector-curvature="0" />
      <path
         d="m 199.37701,248.36037 q 0,1.33333 -1.76,1.33333 h -0.13333 l 2.64,5.94667 q 2.74666,-2.93333 3.28,-5.94667 h -0.42667 q -1.76,0 -1.76,-1.33333 0,-1.33333 1.76,-1.33333 h 3.17333 v 2.66666 q -0.34666,2.29334 -1.62666,4.4 -1.25334,2.08 -3.36,4.58667 h -2.77334 l -3.92,-8.98667 h -0.37333 q -1.76,0 -1.76,-1.33333 0,-1.33333 1.76,-1.33333 h 3.52 q 0.85333,0 1.30667,0.29333 0.45333,0.26667 0.45333,1.04 z"
         id="path5841"
         inkscape:connector-curvature="0" />
      <path
         d="m 234.39618,256.44037 q 0.58667,0 1.17334,-0.18667 0.61333,-0.18666 0.72,-0.18666 0.50666,0 0.88,0.4 0.4,0.4 0.4,0.93333 0,0.8 -0.85334,1.25333 -0.85333,0.45334 -2.4,0.45334 -1.97333,0 -3.33333,-1.44 -1.33333,-1.46667 -1.33333,-3.6 v -4.37334 h -3.04 q -0.56,0 -0.96,-0.37333 -0.37334,-0.4 -0.37334,-0.96 0,-0.56 0.37334,-0.93333 0.4,-0.4 0.96,-0.4 h 9.28 q 0.56,0 0.93333,0.4 0.4,0.37333 0.4,0.93333 0,0.56 -0.4,0.96 -0.37333,0.37333 -0.93333,0.37333 h -3.57334 v 4.37334 q 0,1.06666 0.56,1.73333 0.58667,0.64 1.52,0.64 z"
         id="path5843"
         inkscape:connector-curvature="0" />
      <path
         d="m 247.45243,249.34704 q -1.81334,0 -3.04,1.01333 -1.22667,1.01333 -1.22667,2.53333 0,1.49334 1.2,2.53334 1.22667,1.01333 3.01333,1.01333 1.78667,0 2.98667,-1.01333 1.22667,-1.04 1.22667,-2.53334 0,-1.49333 -1.22667,-2.50666 -1.2,-1.04 -2.93333,-1.04 z m 5.62666,0 q 1.2,1.62666 1.2,3.54666 0,2.61334 -2,4.42667 -2,1.78667 -4.88,1.78667 -2.88,0 -4.88,-1.78667 -2,-1.81333 -2,-4.42667 0,-2.64 2,-4.42666 2,-1.78667 4.96,-1.78667 h 6.64 q 0.56,0 0.93334,0.4 0.4,0.37333 0.4,0.93333 0,0.56 -0.4,0.96 -0.37334,0.37334 -0.93334,0.37334 z"
         id="path5845"
         inkscape:connector-curvature="0" />
      <path
         d="m 267.84202,240.68037 -2.72,3.86667 q -0.32,0.42666 -0.74667,0.42666 -0.45333,0 -0.88,-0.37333 -0.4,-0.37333 -0.4,-0.77333 0,-0.26667 0.37334,-0.8 l 2.74666,-3.84 q 0.42667,-0.42667 0.74667,-0.42667 0.48,0 0.85333,0.34667 0.37334,0.34666 0.37334,0.72 0,0.37333 -0.34667,0.85333 z m 1.6,15.33333 v 0.88 q 0,1.76 -1.36,1.76 -0.45333,0 -0.85333,-0.32 -1.62667,0.77334 -3.94667,0.77334 -2.58667,0 -4.26667,-1.06667 -1.68,-1.06667 -1.68,-2.69333 0,-0.77334 0.4,-1.52 0.42667,-0.74667 1.09334,-1.14667 v -0.26667 q -0.93334,-0.8 -0.93334,-2.08 0,-1.6 1.54667,-2.61333 1.54667,-1.04 3.94667,-1.04 1.94666,0 3.44,0.69333 0.29333,-0.69333 0.85333,-0.69333 1.25333,0 1.25333,1.76 v 0.98667 q 0,1.76 -1.33333,1.76 -0.8,0 -1.25333,-0.82667 l -0.13334,-0.24 q -1.09333,-0.77333 -2.74666,-0.77333 -1.01334,0 -1.84,0.29333 -0.8,0.26667 -0.8,0.64 0,0.42667 0.82666,0.72 0.85334,0.26667 2.10667,0.26667 h 0.82667 0.10666 q 1.68,0 1.68,1.33333 0,1.33333 -1.62666,1.33333 h -1.12 q -1.25334,0 -2.32,0.4 -1.04,0.37334 -1.04,0.96 0,0.45334 0.90666,0.8 0.93334,0.34667 2.21334,0.34667 2.18666,0 3.33333,-1.04 0.34667,-1.17333 1.36,-1.17333 1.36,0 1.36,1.78666 z"
         id="path5847"
         inkscape:connector-curvature="0" />
      <path
         d="m 281.8316,249.6937 h -4.93333 v 6.32 q 1.62666,0 1.62666,1.28 0,0.69334 -0.37333,1.04 -0.34667,0.34667 -1.38667,0.34667 h -2.37333 q -1.78667,0 -1.78667,-1.33333 0,-1.33334 1.62667,-1.33334 v -6.32 q -1.62667,0 -1.62667,-1.33333 0,-1.33333 1.78667,-1.33333 h 9.97333 q 1.76,0 1.76,1.33333 0,0.61333 -0.45333,0.98667 -0.45333,0.34666 -1.17333,0.34666 v 6.32 q 1.62666,0 1.62666,1.28 0,0.66667 -0.4,1.04 -0.37333,0.34667 -1.36,0.34667 h -2.37333 q -1.78667,0 -1.78667,-1.33333 0,-1.33334 1.62667,-1.33334 z"
         id="path5849"
         inkscape:connector-curvature="0" />
      <path
         d="m 289.74119,258.68037 q -1.76,0 -1.76,-1.33333 0,-1.33334 1.76,-1.33334 h 0.16 v -6.32 q -1.62666,-0.0533 -1.62666,-1.33333 0,-1.33333 1.78666,-1.33333 h 2.50667 v 1.28 q 0.96,-0.90667 1.76,-1.25334 0.8,-0.37333 1.89333,-0.37333 2.08,0 3.41334,1.17333 1.33333,1.17334 1.33333,3.30667 v 10.18667 q 1.62667,0 1.62667,1.33333 0,1.33333 -1.76,1.33333 h -2.53334 v -12.74666 q 0,-1.92 -2.4,-1.92 -0.93333,0 -1.68,0.4 -0.72,0.4 -1.65333,1.41333 v 4.85333 h 0.16 q 1.76,0 1.76,1.33334 0,1.33333 -1.76,1.33333 z"
         id="path5851"
         inkscape:connector-curvature="0" />
      <path
         d="m 26.531589,289.77371 q 0.586667,0 1.173333,-0.18666 0.613334,-0.18667 0.72,-0.18667 0.506667,0 0.880001,0.4 0.4,0.4 0.4,0.93333 0,0.8 -0.853334,1.25334 -0.853333,0.45333 -2.4,0.45333 -1.973333,0 -3.333333,-1.44 -1.333334,-1.46667 -1.333334,-3.6 v -4.37333 h -3.04 q -0.56,0 -0.96,-0.37334 -0.373333,-0.4 -0.373333,-0.96 0,-0.56 0.373333,-0.93333 0.4,-0.4 0.96,-0.4 h 9.28 q 0.56,0 0.933334,0.4 0.4,0.37333 0.4,0.93333 0,0.56 -0.4,0.96 -0.373334,0.37334 -0.933334,0.37334 h -3.573333 v 4.37333 q 0,1.06667 0.56,1.73333 0.586667,0.64 1.52,0.64 z"
         id="path5853"
         inkscape:connector-curvature="0" />
      <path
         d="m 39.614506,280.01371 q 2.826667,0 4.8,1.81334 2.000001,1.81333 2.000001,4.4 0,2.61333 -2.000001,4.42666 -2,1.78667 -4.88,1.78667 -2.88,0 -4.88,-1.78667 -2,-1.81333 -2,-4.42666 0,-2.64 2,-4.42667 2,-1.78667 4.96,-1.78667 z m -0.02667,2.66667 q -1.813334,0 -3.040001,1.01333 -1.226666,1.01334 -1.226666,2.53334 0,1.49333 1.2,2.53333 1.226666,1.01333 3.013333,1.01333 1.786667,0 2.986667,-1.01333 1.226667,-1.04 1.226667,-2.53333 0,-1.49334 -1.226667,-2.50667 -1.2,-1.04 -2.933333,-1.04 z"
         id="path5855"
         inkscape:connector-curvature="0" />
      <path
         d="m 55.417424,289.77371 q 1.146666,0 2.026666,-0.56 0.88,-0.56 0.88,-2.02666 v -4.16 h -0.506666 q -1.76,0 -1.76,-1.33334 0,-1.33333 1.76,-1.33333 h 3.6 q 0.853333,0 1.306667,0.29333 0.453333,0.26667 0.453333,1.04 0,1.33334 -1.76,1.33334 h -0.426667 v 4.56 q 0,2.4 -1.52,3.62666 -1.493333,1.22667 -4.106667,1.22667 -2.506667,0 -3.946667,-1.22667 -1.44,-1.22666 -1.44,-3.57333 v -4.61333 h -0.72 q -0.666666,0 -1.066666,-0.37334 -0.400001,-0.37333 -0.400001,-0.96 0,-0.77333 0.453334,-1.04 0.453333,-0.29333 1.306667,-0.29333 h 3.093333 v 6.93333 q 0,1.17334 0.586667,1.84 0.613333,0.64 2.186667,0.64 z"
         id="path5857"
         inkscape:connector-curvature="0" />
      <path
         d="m 91.956592,274.01371 -2.72,3.86667 q -0.32,0.42667 -0.746667,0.42667 -0.453334,0 -0.88,-0.37334 -0.4,-0.37333 -0.4,-0.77333 0,-0.26667 0.373333,-0.8 l 2.746667,-3.84 q 0.426667,-0.42667 0.746667,-0.42667 0.48,0 0.853333,0.34667 0.373333,0.34667 0.373333,0.72 0,0.37333 -0.346666,0.85333 z m 1.6,15.33334 v 0.88 q 0,1.76 -1.36,1.76 -0.453334,0 -0.853334,-0.32 -1.626666,0.77333 -3.946667,0.77333 -2.586666,0 -4.266666,-1.06667 -1.68,-1.06666 -1.68,-2.69333 0,-0.77333 0.4,-1.52 0.426666,-0.74667 1.093333,-1.14667 v -0.26666 q -0.933333,-0.8 -0.933333,-2.08 0,-1.6 1.546666,-2.61334 1.546667,-1.04 3.946667,-1.04 1.946667,0 3.44,0.69334 0.293334,-0.69334 0.853334,-0.69334 1.253333,0 1.253333,1.76 v 0.98667 q 0,1.76 -1.333333,1.76 -0.8,0 -1.253334,-0.82667 l -0.133333,-0.24 q -1.093333,-0.77333 -2.746667,-0.77333 -1.013333,0 -1.84,0.29333 -0.8,0.26667 -0.8,0.64 0,0.42667 0.826667,0.72 0.853333,0.26667 2.106666,0.26667 h 0.826667 0.106667 q 1.68,0 1.68,1.33333 0,1.33334 -1.626667,1.33334 h -1.12 q -1.253333,0 -2.32,0.4 -1.04,0.37333 -1.04,0.96 0,0.45333 0.906667,0.8 0.933333,0.34666 2.213333,0.34666 2.186667,0 3.333334,-1.04 0.346666,-1.17333 1.36,-1.17333 1.36,0 1.36,1.78667 z"
         id="path5859"
         inkscape:connector-curvature="0" />
      <path
         d="m 103.43951,281.69371 q 0,1.33334 -1.76,1.33334 h -0.13333 l 2.64,5.94666 q 2.74666,-2.93333 3.28,-5.94666 h -0.42667 q -1.76,0 -1.76,-1.33334 0,-1.33333 1.76,-1.33333 h 3.17333 v 2.66667 q -0.34666,2.29333 -1.62666,4.4 -1.25334,2.08 -3.36,4.58666 h -2.77334 l -3.919996,-8.98666 H 98.15951 q -1.76,0 -1.76,-1.33334 0,-1.33333 1.76,-1.33333 h 3.52 q 0.85333,0 1.30667,0.29333 0.45333,0.26667 0.45333,1.04 z"
         id="path5861"
         inkscape:connector-curvature="0" />
      <path
         d="m 122.97576,286.22705 q 0,-1.6 -1.09334,-2.58667 -1.09333,-0.98667 -2.90666,-0.98667 -1.78667,0 -2.88,1.04 -1.06667,1.01334 -1.06667,2.48 0,1.30667 0.96,2.42667 0.98667,1.12 3.01333,1.12 1.76,0 2.85334,-0.98667 1.12,-1.01333 1.12,-2.50666 z m 1.33333,-6.66667 q 0.77333,0 1.04,0.45333 0.29333,0.45334 0.29333,1.30667 v 8.02667 h 0.42667 q 1.76,0 1.76,1.33333 0,1.33333 -1.76,1.33333 h -3.09333 v -0.93333 q -1.92,1.30667 -4.02667,1.30667 -2.98667,0 -4.8,-1.78667 -1.78667,-1.78667 -1.78667,-4.42667 0,-2.64 1.78667,-4.4 1.81333,-1.78666 4.82667,-1.78666 2.32,0 4,1.33333 0,-1.76 1.33333,-1.76 z"
         id="path5863"
         inkscape:connector-curvature="0" />
      <path
         d="m 135.41867,281.69371 q 0,1.33334 -1.76,1.33334 h -0.13333 l 2.64,5.94666 q 2.74667,-2.93333 3.28,-5.94666 h -0.42667 q -1.76,0 -1.76,-1.33334 0,-1.33333 1.76,-1.33333 h 3.17334 v 2.66667 q -0.34667,2.29333 -1.62667,4.4 -1.25333,2.08 -3.36,4.58666 h -2.77333 l -3.92,-8.98666 h -0.37334 q -1.76,0 -1.76,-1.33334 0,-1.33333 1.76,-1.33333 h 3.52 q 0.85334,0 1.30667,0.29333 0.45333,0.26667 0.45333,1.04 z"
         id="path5865"
         inkscape:connector-curvature="0" />
      <path
         d="m 167.34451,289.77371 q 1.14666,0 2.02666,-0.56 0.88,-0.56 0.88,-2.02666 v -4.16 h -0.50666 q -1.76,0 -1.76,-1.33334 0,-1.33333 1.76,-1.33333 h 3.6 q 0.85333,0 1.30666,0.29333 0.45334,0.26667 0.45334,1.04 0,1.33334 -1.76,1.33334 h -0.42667 v 4.56 q 0,2.4 -1.52,3.62666 -1.49333,1.22667 -4.10667,1.22667 -2.50666,0 -3.94666,-1.22667 -1.44,-1.22666 -1.44,-3.57333 v -4.61333 h -0.72 q -0.66667,0 -1.06667,-0.37334 -0.4,-0.37333 -0.4,-0.96 0,-0.77333 0.45333,-1.04 0.45334,-0.29333 1.30667,-0.29333 h 3.09333 v 6.93333 q 0,1.17334 0.58667,1.84 0.61333,0.64 2.18667,0.64 z"
         id="path5867"
         inkscape:connector-curvature="0" />
      <path
         d="m 185.8941,283.02705 h -4.93333 v 6.32 q 1.62666,0 1.62666,1.28 0,0.69333 -0.37333,1.04 -0.34667,0.34666 -1.38667,0.34666 h -2.37333 q -1.78667,0 -1.78667,-1.33333 0,-1.33333 1.62667,-1.33333 v -6.32 q -1.62667,0 -1.62667,-1.33334 0,-1.33333 1.78667,-1.33333 h 9.97333 q 1.76,0 1.76,1.33333 0,0.61334 -0.45333,0.98667 -0.45333,0.34667 -1.17333,0.34667 v 6.32 q 1.62666,0 1.62666,1.28 0,0.66666 -0.4,1.04 -0.37333,0.34666 -1.36,0.34666 h -2.37333 q -1.78667,0 -1.78667,-1.33333 0,-1.33333 1.62667,-1.33333 z"
         id="path5869"
         inkscape:connector-curvature="0" />
      <path
         d="m 199.51034,280.01371 q 2.82667,0 4.8,1.81334 2,1.81333 2,4.4 0,2.61333 -2,4.42666 -2,1.78667 -4.88,1.78667 -2.88,0 -4.88,-1.78667 -2,-1.81333 -2,-4.42666 0,-2.64 2,-4.42667 2,-1.78667 4.96,-1.78667 z m -0.0267,2.66667 q -1.81334,0 -3.04,1.01333 -1.22667,1.01334 -1.22667,2.53334 0,1.49333 1.2,2.53333 1.22667,1.01333 3.01333,1.01333 1.78667,0 2.98667,-1.01333 1.22667,-1.04 1.22667,-2.53333 0,-1.49334 -1.22667,-2.50667 -1.2,-1.04 -2.93333,-1.04 z"
         id="path5871"
         inkscape:connector-curvature="0" />
      <path
         d="m 208.21992,276.70705 q 0,-0.48 0.34667,-0.90667 0.37333,-0.42667 1.14667,-0.42667 h 0.26666 2.58667 q 0.50667,0 0.90667,0.13334 0.4,0.13333 0.64,0.29333 0.26666,0.13333 0.50666,0.48 0.26667,0.32 0.37334,0.53333 0.10666,0.18667 0.29333,0.64 0.21333,0.42667 0.29333,0.58667 l 5.89334,11.30667 q 1.38666,0.13333 1.38666,1.33333 0,1.33333 -1.76,1.33333 h -2.45333 q -1.78667,0 -1.78667,-1.33333 0,-1.33333 1.70667,-1.33333 l -3.2,-5.94667 -3.04,5.94667 q 1.57333,0.0533 1.57333,1.33333 0,1.33333 -1.76,1.33333 h -2.4 q -1.76,0 -1.76,-1.33333 0,-1.17333 1.30667,-1.33333 l 4.58667,-8.90667 -1.22667,-2.4 h -2.66667 q -1.76,0 -1.76,-1.33333 z"
         id="path5873"
         inkscape:connector-curvature="0" />
      <path
         d="m 231.48952,280.01371 q 2.82666,0 4.8,1.81334 2,1.81333 2,4.4 0,2.61333 -2,4.42666 -2,1.78667 -4.88,1.78667 -2.88,0 -4.88,-1.78667 -2,-1.81333 -2,-4.42666 0,-2.64 2,-4.42667 2,-1.78667 4.96,-1.78667 z m -0.0267,2.66667 q -1.81333,0 -3.04,1.01333 -1.22667,1.01334 -1.22667,2.53334 0,1.49333 1.2,2.53333 1.22667,1.01333 3.01334,1.01333 1.78666,0 2.98666,-1.01333 1.22667,-1.04 1.22667,-2.53333 0,-1.49334 -1.22667,-2.50667 -1.2,-1.04 -2.93333,-1.04 z"
         id="path5875"
         inkscape:connector-curvature="0" />
      <path
         d="m 244.17243,280.36038 q 0.85333,0 1.30666,0.29333 0.45334,0.26667 0.45334,1.04 0,1.28 -1.57334,1.33334 l 3.04,5.94666 3.2,-5.94666 q -1.70666,0 -1.70666,-1.33334 0,-1.33333 1.78666,-1.33333 h 2.45334 q 0.85333,0 1.30666,0.29333 0.45334,0.26667 0.45334,1.04 0,1.2 -1.38667,1.33334 l -4.77333,9.06666 v 2.58667 h 0.29333 q 0.85333,0 1.30667,0.26667 0.45333,0.29333 0.45333,1.06666 0,1.33334 -1.76,1.33334 h -3.28 -0.26667 q -0.8,0 -1.14666,-0.42667 -0.34667,-0.4 -0.34667,-0.90667 0,-1.33333 1.76,-1.33333 h 0.29333 v -2.58667 l -4.72,-9.06666 q -1.30666,-0.16 -1.30666,-1.33334 0,-1.33333 1.76,-1.33333 z"
         id="path5877"
         inkscape:connector-curvature="0" />
      <path
         d="m 258.18869,281.69371 q 0,-0.8 0.45333,-1.06666 0.48,-0.26667 1.33333,-0.26667 h 4.74667 v 7.04 q 0,1.06667 0.56,1.73333 0.58667,0.64 1.52,0.64 0.58667,0 1.17333,-0.18666 0.61334,-0.18667 0.72,-0.18667 0.50667,0 0.88,0.4 0.4,0.4 0.4,0.93333 0,0.8 -0.85333,1.25334 -0.85333,0.45333 -2.4,0.45333 -1.97333,0 -3.33333,-1.44 -1.33334,-1.46667 -1.33334,-3.6 v -4.37333 h -2.08 q -1.78666,0 -1.78666,-1.33334 z"
         id="path5879"
         inkscape:connector-curvature="0" />
      <path
         d="m 279.4316,282.68038 q -1.81333,0 -3.04,1.01333 -1.22667,1.01334 -1.22667,2.53334 0,1.49333 1.2,2.53333 1.22667,1.01333 3.01334,1.01333 1.78666,0 2.98666,-1.01333 1.22667,-1.04 1.22667,-2.53333 0,-1.49334 -1.22667,-2.50667 -1.2,-1.04 -2.93333,-1.04 z m 5.62667,0 q 1.2,1.62667 1.2,3.54667 0,2.61333 -2,4.42666 -2,1.78667 -4.88,1.78667 -2.88,0 -4.88,-1.78667 -2,-1.81333 -2,-4.42666 0,-2.64 2,-4.42667 2,-1.78667 4.96,-1.78667 h 6.64 q 0.56,0 0.93333,0.4 0.4,0.37334 0.4,0.93334 0,0.56 -0.4,0.96 -0.37333,0.37333 -0.93333,0.37333 z"
         id="path5881"
         inkscape:connector-curvature="0" />
      <path
         d="m 298.35453,289.77371 q 0.58666,0 1.17333,-0.18666 0.61333,-0.18667 0.72,-0.18667 0.50667,0 0.88,0.4 0.4,0.4 0.4,0.93333 0,0.8 -0.85333,1.25334 -0.85334,0.45333 -2.4,0.45333 -1.97334,0 -3.33334,-1.44 -1.33333,-1.46667 -1.33333,-3.6 v -4.37333 h -3.04 q -0.56,0 -0.96,-0.37334 -0.37333,-0.4 -0.37333,-0.96 0,-0.56 0.37333,-0.93333 0.4,-0.4 0.96,-0.4 h 9.28 q 0.56,0 0.93333,0.4 0.4,0.37333 0.4,0.93333 0,0.56 -0.4,0.96 -0.37333,0.37334 -0.93333,0.37334 h -3.57333 v 4.37333 q 0,1.06667 0.56,1.73333 0.58666,0.64 1.52,0.64 z"
         id="path5883"
         inkscape:connector-curvature="0" />
      <path
         d="m 314.50409,274.01371 -2.72,3.86667 q -0.32,0.42667 -0.74667,0.42667 -0.45333,0 -0.88,-0.37334 -0.4,-0.37333 -0.4,-0.77333 0,-0.26667 0.37334,-0.8 l 2.74666,-3.84 q 0.42667,-0.42667 0.74667,-0.42667 0.48,0 0.85333,0.34667 0.37334,0.34667 0.37334,0.72 0,0.37333 -0.34667,0.85333 z m -8.77333,18 q -1.76,0 -1.76,-1.33333 0,-1.33333 1.76,-1.33333 h 0.16 v -6.32 q -1.62667,-0.0533 -1.62667,-1.33334 0,-1.33333 1.78667,-1.33333 h 2.50666 v 1.28 q 0.96,-0.90667 1.76,-1.25333 0.8,-0.37334 1.89334,-0.37334 2.08,0 3.41333,1.17334 1.33333,1.17333 1.33333,3.30666 v 10.18667 q 1.62667,0 1.62667,1.33333 0,1.33334 -1.76,1.33334 h -2.53333 v -12.74667 q 0,-1.92 -2.4,-1.92 -0.93334,0 -1.68,0.4 -0.72,0.4 -1.65334,1.41333 v 4.85334 h 0.16 q 1.76,0 1.76,1.33333 0,1.33333 -1.76,1.33333 z"
         id="path5885"
         inkscape:connector-curvature="0" />
      <path
         d="m 28.344922,322.68039 q 1.813334,0 1.813334,1.33333 0,1.33334 -1.813334,1.33334 h -3.146666 q -1.76,0 -1.76,-1.33334 0,-0.53333 0.426666,-0.98666 l -2.08,-2.05334 v 4.37334 h -3.093333 q -1.76,0 -1.76,-1.33334 0,-1.33333 1.76,-1.33333 h 0.426666 v -6.32 h -0.426666 q -0.853334,0 -1.306667,-0.26667 -0.453333,-0.29333 -0.453333,-1.06666 0,-1.33334 1.76,-1.33334 h 3.093333 v 4 l 2.133334,-1.68 q -0.426667,-0.50666 -0.426667,-0.98666 0,-1.33334 1.76,-1.33334 h 2.986667 q 0.853333,0 1.306667,0.29334 0.453333,0.26666 0.453333,1.04 0,1.33333 -1.76,1.33333 h -0.746667 l -3.626667,2.93333 3.626667,3.38667 z"
         id="path5887"
         inkscape:connector-curvature="0" />
      <path
         d="m 43.02784,319.56039 q 0,-1.6 -1.093334,-2.58667 -1.093333,-0.98666 -2.906666,-0.98666 -1.786667,0 -2.880001,1.04 -1.066666,1.01333 -1.066666,2.48 0,1.30666 0.96,2.42666 0.986666,1.12 3.013333,1.12 1.76,0 2.853334,-0.98666 1.12,-1.01334 1.12,-2.50667 z m 1.333333,-6.66667 q 0.773333,0 1.04,0.45334 0.293334,0.45333 0.293334,1.30666 v 8.02667 h 0.426666 q 1.76,0 1.76,1.33333 0,1.33334 -1.76,1.33334 H 43.02784 v -0.93334 q -1.92,1.30667 -4.026667,1.30667 -2.986667,0 -4.8,-1.78667 -1.786667,-1.78666 -1.786667,-4.42666 0,-2.64 1.786667,-4.4 1.813333,-1.78667 4.826667,-1.78667 2.32,0 4,1.33333 0,-1.76 1.333333,-1.76 z"
         id="path5889"
         inkscape:connector-curvature="0" />
      <path
         d="m 50.32409,315.02706 q 0,-0.8 0.453333,-1.06667 0.48,-0.26667 1.333334,-0.26667 h 4.746667 v 7.04 q 0,1.06667 0.56,1.73334 0.586666,0.64 1.52,0.64 0.586666,0 1.173333,-0.18667 0.613333,-0.18667 0.72,-0.18667 0.506667,0 0.88,0.4 0.4,0.4 0.4,0.93334 0,0.8 -0.853333,1.25333 -0.853334,0.45333 -2.4,0.45333 -1.973334,0 -3.333334,-1.44 -1.333333,-1.46666 -1.333333,-3.6 v -4.37333 h -2.08 q -1.786667,0 -1.786667,-1.33333 z"
         id="path5891"
         inkscape:connector-curvature="0" />
      <path
         d="m 89.876592,307.34706 -2.720001,3.86666 q -0.32,0.42667 -0.746666,0.42667 -0.453334,0 -0.88,-0.37333 -0.4,-0.37334 -0.4,-0.77334 0,-0.26666 0.373333,-0.8 l 2.746667,-3.84 q 0.426667,-0.42666 0.746667,-0.42666 0.48,0 0.853333,0.34666 0.373333,0.34667 0.373333,0.72 0,0.37334 -0.346666,0.85334 z m -2.293334,6 q 2.826667,0 4.8,1.81333 2,1.81333 2,4.4 0,2.61333 -2,4.42667 -2,1.78666 -4.88,1.78666 -2.88,0 -4.88,-1.78666 -2,-1.81334 -2,-4.42667 0,-2.64 2,-4.42667 2,-1.78666 4.96,-1.78666 z m -0.02667,2.66666 q -1.813333,0 -3.04,1.01334 -1.226666,1.01333 -1.226666,2.53333 0,1.49333 1.2,2.53333 1.226666,1.01334 3.013333,1.01334 1.786667,0 2.986667,-1.01334 1.226667,-1.04 1.226667,-2.53333 0,-1.49333 -1.226667,-2.50667 -1.2,-1.04 -2.933334,-1.04 z"
         id="path5893"
         inkscape:connector-curvature="0" />
      <path
         d="m 96.292844,310.04039 q 0,-0.48 0.346666,-0.90667 0.373334,-0.42666 1.146667,-0.42666 h 0.266667 2.586666 q 0.50667,0 0.90667,0.13333 0.4,0.13333 0.64,0.29333 0.26666,0.13334 0.50666,0.48 0.26667,0.32 0.37334,0.53334 0.10666,0.18666 0.29333,0.64 0.21333,0.42666 0.29333,0.58666 l 5.89334,11.30667 q 1.38666,0.13333 1.38666,1.33333 0,1.33334 -1.76,1.33334 h -2.45333 q -1.78667,0 -1.78667,-1.33334 0,-1.33333 1.70667,-1.33333 l -3.2,-5.94667 -3.04,5.94667 q 1.57333,0.0533 1.57333,1.33333 0,1.33334 -1.76,1.33334 h -2.399996 q -1.76,0 -1.76,-1.33334 0,-1.17333 1.306666,-1.33333 l 4.58667,-8.90667 -1.22667,-2.4 h -2.666666 q -1.76,0 -1.76,-1.33333 z"
         id="path5895"
         inkscape:connector-curvature="0" />
      <path
         d="m 119.56242,313.34706 q 2.82667,0 4.8,1.81333 2,1.81333 2,4.4 0,2.61333 -2,4.42667 -2,1.78666 -4.88,1.78666 -2.88,0 -4.88,-1.78666 -2,-1.81334 -2,-4.42667 0,-2.64 2,-4.42667 2,-1.78666 4.96,-1.78666 z m -0.0267,2.66666 q -1.81334,0 -3.04,1.01334 -1.22667,1.01333 -1.22667,2.53333 0,1.49333 1.2,2.53333 1.22667,1.01334 3.01333,1.01334 1.78667,0 2.98667,-1.01334 1.22667,-1.04 1.22667,-2.53333 0,-1.49333 -1.22667,-2.50667 -1.2,-1.04 -2.93333,-1.04 z"
         id="path5897"
         inkscape:connector-curvature="0" />
      <path
         d="m 130.27201,315.02706 q 0,-0.8 0.45333,-1.06667 0.48,-0.26667 1.33333,-0.26667 h 4.74667 v 7.04 q 0,1.06667 0.56,1.73334 0.58667,0.64 1.52,0.64 0.58667,0 1.17334,-0.18667 0.61333,-0.18667 0.72,-0.18667 0.50666,0 0.88,0.4 0.4,0.4 0.4,0.93334 0,0.8 -0.85334,1.25333 -0.85333,0.45333 -2.4,0.45333 -1.97333,0 -3.33333,-1.44 -1.33334,-1.46666 -1.33334,-3.6 v -4.37333 h -2.08 q -1.78666,0 -1.78666,-1.33333 z"
         id="path5899"
         inkscape:connector-curvature="0" />
      <path
         d="m 167.45117,308.73372 q 2.82667,0 4.29334,2.16 1.49333,2.16 1.49333,5.28 v 2.13334 q 0,2 -0.61333,3.65333 -0.58667,1.62667 -1.94667,2.72 -1.33333,1.06667 -3.22667,1.06667 -2.82666,0 -4.32,-2.16 -1.46666,-2.16 -1.46666,-5.28 v -2.13334 q 0,-2 0.58666,-3.62666 0.61334,-1.65334 1.94667,-2.72 1.36,-1.09334 3.25333,-1.09334 z m -3.12,7.2 h 6.24 q -0.0267,-2.08 -0.88,-3.30666 -0.82666,-1.22667 -2.24,-1.22667 -1.41333,0 -2.26666,1.22667 -0.82667,1.22666 -0.85334,3.30666 z m 6.24,2.66667 h -6.24 q 0.0267,2.02667 0.85334,3.25333 0.85333,1.22667 2.26666,1.22667 1.41334,0 2.24,-1.22667 0.85334,-1.22666 0.88,-3.25333 z"
         id="path5901"
         inkscape:connector-curvature="0" />
      <path
         d="m 186.9341,319.56039 q 0,-1.6 -1.09333,-2.58667 -1.09334,-0.98666 -2.90667,-0.98666 -1.78667,0 -2.88,1.04 -1.06667,1.01333 -1.06667,2.48 0,1.30666 0.96,2.42666 0.98667,1.12 3.01334,1.12 1.76,0 2.85333,-0.98666 1.12,-1.01334 1.12,-2.50667 z m 1.33333,-6.66667 q 0.77334,0 1.04,0.45334 0.29334,0.45333 0.29334,1.30666 v 8.02667 h 0.42666 q 1.76,0 1.76,1.33333 0,1.33334 -1.76,1.33334 h -3.09333 v -0.93334 q -1.92,1.30667 -4.02667,1.30667 -2.98666,0 -4.8,-1.78667 -1.78666,-1.78666 -1.78666,-4.42666 0,-2.64 1.78666,-4.4 1.81334,-1.78667 4.82667,-1.78667 2.32,0 4,1.33333 0,-1.76 1.33333,-1.76 z"
         id="path5903"
         inkscape:connector-curvature="0" />
      <path
         d="m 221.47326,322.68039 v 0.88 q 0,1.76 -1.36,1.76 -0.45334,0 -0.85334,-0.32 -1.62666,0.77333 -3.94666,0.77333 -2.58667,0 -4.26667,-1.06666 -1.68,-1.06667 -1.68,-2.69334 0,-0.77333 0.4,-1.52 0.42667,-0.74666 1.09333,-1.14666 v -0.26667 q -0.93333,-0.8 -0.93333,-2.08 0,-1.6 1.54667,-2.61333 1.54666,-1.04 3.94666,-1.04 1.94667,0 3.44,0.69333 0.29334,-0.69333 0.85334,-0.69333 1.25333,0 1.25333,1.76 v 0.98666 q 0,1.76 -1.33333,1.76 -0.8,0 -1.25334,-0.82666 l -0.13333,-0.24 q -1.09333,-0.77334 -2.74667,-0.77334 -1.01333,0 -1.84,0.29334 -0.8,0.26666 -0.8,0.64 0,0.42666 0.82667,0.72 0.85333,0.26666 2.10667,0.26666 h 0.82666 0.10667 q 1.68,0 1.68,1.33334 0,1.33333 -1.62667,1.33333 h -1.12 q -1.25333,0 -2.32,0.4 -1.04,0.37333 -1.04,0.96 0,0.45333 0.90667,0.8 0.93333,0.34667 2.21333,0.34667 2.18667,0 3.33334,-1.04 0.34666,-1.17334 1.36,-1.17334 1.36,0 1.36,1.78667 z"
         id="path5905"
         inkscape:connector-curvature="0" />
      <path
         d="m 232.66285,307.34706 -2.72,3.86666 q -0.32,0.42667 -0.74667,0.42667 -0.45333,0 -0.88,-0.37333 -0.4,-0.37334 -0.4,-0.77334 0,-0.26666 0.37334,-0.8 l 2.74666,-3.84 q 0.42667,-0.42666 0.74667,-0.42666 0.48,0 0.85333,0.34666 0.37334,0.34667 0.37334,0.72 0,0.37334 -0.34667,0.85334 z m -6.45333,7.68 q 0,-0.8 0.45333,-1.06667 0.48,-0.26667 1.33333,-0.26667 h 4.74667 v 7.04 q 0,1.06667 0.56,1.73334 0.58667,0.64 1.52,0.64 0.58667,0 1.17333,-0.18667 0.61334,-0.18667 0.72,-0.18667 0.50667,0 0.88,0.4 0.4,0.4 0.4,0.93334 0,0.8 -0.85333,1.25333 -0.85333,0.45333 -2.4,0.45333 -1.97333,0 -3.33333,-1.44 -1.33334,-1.46666 -1.33334,-3.6 v -4.37333 h -2.08 q -1.78666,0 -1.78666,-1.33333 z"
         id="path5907"
         inkscape:connector-curvature="0" />
      <path
         d="m 247.34576,315.02706 q 0,1.33333 -1.76,1.33333 h -0.13333 l 2.64,5.94667 q 2.74666,-2.93334 3.28,-5.94667 h -0.42667 q -1.76,0 -1.76,-1.33333 0,-1.33334 1.76,-1.33334 h 3.17333 v 2.66667 q -0.34666,2.29333 -1.62666,4.4 -1.25334,2.08 -3.36,4.58667 h -2.77334 l -3.92,-8.98667 h -0.37333 q -1.76,0 -1.76,-1.33333 0,-1.33334 1.76,-1.33334 h 3.52 q 0.85333,0 1.30667,0.29334 0.45333,0.26666 0.45333,1.04 z"
         id="path5909"
         inkscape:connector-curvature="0" />
      <path
         d="m 266.88202,319.56039 q 0,-1.6 -1.09333,-2.58667 -1.09334,-0.98666 -2.90667,-0.98666 -1.78667,0 -2.88,1.04 -1.06667,1.01333 -1.06667,2.48 0,1.30666 0.96,2.42666 0.98667,1.12 3.01334,1.12 1.76,0 2.85333,-0.98666 1.12,-1.01334 1.12,-2.50667 z m 1.33333,-6.66667 q 0.77334,0 1.04,0.45334 0.29334,0.45333 0.29334,1.30666 v 8.02667 h 0.42666 q 1.76,0 1.76,1.33333 0,1.33334 -1.76,1.33334 h -3.09333 v -0.93334 q -1.92,1.30667 -4.02667,1.30667 -2.98666,0 -4.8,-1.78667 -1.78666,-1.78666 -1.78666,-4.42666 0,-2.64 1.78666,-4.4 1.81334,-1.78667 4.82667,-1.78667 2.32,0 4,1.33333 0,-1.76 1.33333,-1.76 z"
         id="path5911"
         inkscape:connector-curvature="0" />
      <path
         d="m 274.17827,315.02706 q 0,-0.8 0.45333,-1.06667 0.48,-0.26667 1.33333,-0.26667 h 4.74667 v 7.04 q 0,1.06667 0.56,1.73334 0.58667,0.64 1.52,0.64 0.58667,0 1.17333,-0.18667 0.61334,-0.18667 0.72,-0.18667 0.50667,0 0.88,0.4 0.4,0.4 0.4,0.93334 0,0.8 -0.85333,1.25333 -0.85333,0.45333 -2.4,0.45333 -1.97333,0 -3.33333,-1.44 -1.33334,-1.46666 -1.33334,-3.6 v -4.37333 h -2.08 q -1.78666,0 -1.78666,-1.33333 z"
         id="path5913"
         inkscape:connector-curvature="0" />
    </g>
    <path
       style="color:#000000;font-style:normal;font-variant:normal;font-weight:normal;font-stretch:normal;font-size:medium;line-height:normal;font-family:sans-serif;font-variant-ligatures:normal;font-variant-position:normal;font-variant-caps:normal;font-variant-numeric:normal;font-variant-alternates:normal;font-feature-settings:normal;text-indent:0;text-align:start;text-decoration:none;text-decoration-line:none;text-decoration-style:solid;text-decoration-color:#000000;letter-spacing:normal;word-spacing:normal;text-transform:none;writing-mode:lr-tb;direction:ltr;text-orientation:mixed;dominant-baseline:auto;baseline-shift:baseline;text-anchor:start;white-space:normal;shape-padding:0;clip-rule:nonzero;display:inline;overflow:visible;visibility:visible;opacity:1;isolation:auto;mix-blend-mode:normal;color-interpolation:sRGB;color-interpolation-filters:linearRGB;solid-color:#000000;solid-opacity:1;vector-effect:none;fill:#000000;fill-opacity:1;fill-rule:nonzero;stroke:#ffffff;stroke-width:0.76499999;stroke-linecap:butt;stroke-linejoin:miter;stroke-miterlimit:4;stroke-dasharray:none;stroke-dashoffset:0;stroke-opacity:1;color-rendering:auto;image-rendering:auto;shape-rendering:auto;text-rendering:auto;enable-background:accumulate"
       d="m 57.151349,21.964344 v 2.063974 h 8.892737 v 28.674438 h -8.892737 v 2.065222 H 76.995648 V 52.702756 H 68.102902 V 24.028318 h 8.892746 v -2.063974 z"
       id="path950"
       inkscape:connector-curvature="0" />
  </g>
</svg>
